  0
SECTION
  2
HEADER
  9
$ACADVER
  1
AC1015
  9
$ACADMAINTVER
 70
     6
  9
$DWGCODEPAGE
  3
ANSI_1252
  9
$INSBASE
 10
0.0
 20
0.0
 30
0.0
  9
$EXTMIN
 10
0.0
 20
0.0
 30
0.0
  9
$EXTMAX
 10
120.0
 20
60.0
 30
0.0
  9
$LIMMIN
 10
0.0
 20
0.0
  9
$LIMMAX
 10
120.0
 20
60.0
  9
$ORTHOMODE
 70
     0
  9
$REGENMODE
 70
     1
  9
$FILLMODE
 70
     1
  9
$QTEXTMODE
 70
     0
  9
$MIRRTEXT
 70
     1
  9
$LTSCALE
 40
1.0
  9
$ATTMODE
 70
     1
  9
$TEXTSIZE
 40
0.35
  9
$TRACEWID
 40
1.0
  9
$TEXTSTYLE
  7
Standard
  9
$CLAYER
  8
0
  9
$CELTYPE
  6
ByLayer
  9
$CECOLOR
 62
   256
  9
$CELTSCALE
 40
1.0
  9
$DISPSILH
 70
     0
  9
$DIMSCALE
 40
1.0
  9
$DIMASZ
 40
0.3302
  9
$DIMEXO
 40
0.1
  9
$DIMDLI
 40
3.75
  9
$DIMRND
 40
0.0
  9
$DIMDLE
 40
0.0
  9
$DIMEXE
 40
0.1
  9
$DIMTP
 40
0.0
  9
$DIMTM
 40
0.0
  9
$DIMTXT
 40
0.35
  9
$DIMCEN
 40
2.5
  9
$DIMTSZ
 40
0.0
  9
$DIMTOL
 70
     0
  9
$DIMLIM
 70
     0
  9
$DIMTIH
 70
     1
  9
$DIMTOH
 70
     1
  9
$DIMSE1
 70
     0
  9
$DIMSE2
 70
     0
  9
$DIMTAD
 70
     1
  9
$DIMZIN
 70
     1
  9
$DIMBLK
  1

  9
$DIMASO
 70
     1
  9
$DIMSHO
 70
     1
  9
$DIMPOST
  1

  9
$DIMAPOST
  1

  9
$DIMALT
 70
     0
  9
$DIMALTD
 70
     3
  9
$DIMALTF
 40
0.3937007874
  9
$DIMLFAC
 40
1.0
  9
$DIMTOFL
 70
     1
  9
$DIMTVP
 40
0.0
  9
$DIMTIX
 70
     0
  9
$DIMSOXD
 70
     0
  9
$DIMSAH
 70
     0
  9
$DIMBLK1
  1

  9
$DIMBLK2
  1

  9
$DIMSTYLE
  2
ISO-25
  9
$DIMCLRD
 70
     0
  9
$DIMCLRE
 70
     0
  9
$DIMCLRT
 70
     0
  9
$DIMTFAC
 40
1.0
  9
$DIMGAP
 40
0.1524
  9
$DIMJUST
 70
     0
  9
$DIMSD1
 70
     0
  9
$DIMSD2
 70
     0
  9
$DIMTOLJ
 70
     0
  9
$DIMTZIN
 70
     1
  9
$DIMALTZ
 70
     0
  9
$DIMALTTZ
 70
     0
  9
$DIMUPT
 70
     0
  9
$DIMDEC
 70
     2
  9
$DIMTDEC
 70
     2
  9
$DIMALTU
 70
     2
  9
$DIMALTTD
 70
     3
  9
$DIMTXSTY
  7
Standard
  9
$DIMAUNIT
 70
     0
  9
$DIMADEC
 70
     2
  9
$DIMALTRND
 40
0.0
  9
$DIMAZIN
 70
     0
  9
$DIMDSEP
 70
    44
  9
$DIMATFIT
 70
     3
  9
$DIMFRAC
 70
     0
  9
$DIMLDRBLK
  1

  9
$DIMLUNIT
 70
     2
  9
$DIMLWD
 70
    -2
  9
$DIMLWE
 70
    -2
  9
$DIMTMOVE
 70
     0
  9
$LUNITS
 70
     2
  9
$LUPREC
 70
     2
  9
$SKETCHINC
 40
1.0
  9
$FILLETRAD
 40
0.0
  9
$AUNITS
 70
     0
  9
$AUPREC
 70
     2
  9
$MENU
  1
.
  9
$ELEVATION
 40
0.0
  9
$PELEVATION
 40
0.0
  9
$THICKNESS
 40
0.0
  9
$LIMCHECK
 70
     0
  9
$CHAMFERA
 40
0.0
  9
$CHAMFERB
 40
0.0
  9
$CHAMFERC
 40
0.0
  9
$CHAMFERD
 40
0.0
  9
$SKPOLY
 70
     0
  9
$TDCREATE
 40
2460734.811409051
  9
$TDUCREATE
 40
2460735.061409051
  9
$TDUPDATE
 40
2460734.811409283
  9
$TDUUPDATE
 40
2460735.061409283
  9
$TDINDWG
 40
0.0000000116
  9
$TDUSRTIMER
 40
0.0000000116
  9
$USRTIMER
 70
     1
  9
$ANGBASE
 50
0.0
  9
$ANGDIR
 70
     0
  9
$PDMODE
 70
     0
  9
$PDSIZE
 40
-1.0
  9
$PLINEWID
 40
0.0
  9
$SPLFRAME
 70
     0
  9
$SPLINETYPE
 70
     6
  9
$SPLINESEGS
 70
     8
  9
$HANDSEED
  5
1B4
  9
$SURFTAB1
 70
     6
  9
$SURFTAB2
 70
     6
  9
$SURFTYPE
 70
     6
  9
$SURFU
 70
     6
  9
$SURFV
 70
     6
  9
$UCSBASE
  2

  9
$UCSNAME
  2

  9
$UCSORG
 10
0.0
 20
0.0
 30
0.0
  9
$UCSXDIR
 10
1.0
 20
0.0
 30
0.0
  9
$UCSYDIR
 10
0.0
 20
1.0
 30
0.0
  9
$UCSORTHOREF
  2

  9
$UCSORTHOVIEW
 70
     0
  9
$UCSORGTOP
 10
0.0
 20
0.0
 30
0.0
  9
$UCSORGBOTTOM
 10
0.0
 20
0.0
 30
0.0
  9
$UCSORGLEFT
 10
0.0
 20
0.0
 30
0.0
  9
$UCSORGRIGHT
 10
0.0
 20
0.0
 30
0.0
  9
$UCSORGFRONT
 10
0.0
 20
0.0
 30
0.0
  9
$UCSORGBACK
 10
0.0
 20
0.0
 30
0.0
  9
$PUCSBASE
  2

  9
$PUCSNAME
  2

  9
$PUCSORG
 10
0.0
 20
0.0
 30
0.0
  9
$PUCSXDIR
 10
1.0
 20
0.0
 30
0.0
  9
$PUCSYDIR
 10
0.0
 20
1.0
 30
0.0
  9
$PUCSORTHOREF
  2

  9
$PUCSORTHOVIEW
 70
     0
  9
$PUCSORGTOP
 10
0.0
 20
0.0
 30
0.0
  9
$PUCSORGBOTTOM
 10
0.0
 20
0.0
 30
0.0
  9
$PUCSORGLEFT
 10
0.0
 20
0.0
 30
0.0
  9
$PUCSORGRIGHT
 10
0.0
 20
0.0
 30
0.0
  9
$PUCSORGFRONT
 10
0.0
 20
0.0
 30
0.0
  9
$PUCSORGBACK
 10
0.0
 20
0.0
 30
0.0
  9
$USERI1
 70
     0
  9
$USERI2
 70
     0
  9
$USERI3
 70
     0
  9
$USERI4
 70
     0
  9
$USERI5
 70
     0
  9
$USERR1
 40
0.0
  9
$USERR2
 40
0.0
  9
$USERR3
 40
0.0
  9
$USERR4
 40
0.0
  9
$USERR5
 40
0.0
  9
$WORLDVIEW
 70
     1
  9
$SHADEDGE
 70
     3
  9
$SHADEDIF
 70
    70
  9
$TILEMODE
 70
     1
  9
$MAXACTVP
 70
    64
  9
$PINSBASE
 10
0.0
 20
0.0
 30
0.0
  9
$PLIMCHECK
 70
     0
  9
$PEXTMIN
 10
1.0000000000E+20
 20
1.0000000000E+20
 30
1.0000000000E+20
  9
$PEXTMAX
 10
-1.0000000000E+20
 20
-1.0000000000E+20
 30
-1.0000000000E+20
  9
$PLIMMIN
 10
0.0
 20
0.0
  9
$PLIMMAX
 10
420.0
 20
297.0
  9
$UNITMODE
 70
     0
  9
$VISRETAIN
 70
     1
  9
$PLINEGEN
 70
     0
  9
$PSLTSCALE
 70
     1
  9
$TREEDEPTH
 70
  3020
  9
$CMLSTYLE
  2
Standard
  9
$CMLJUST
 70
     0
  9
$CMLSCALE
 40
20.0
  9
$PROXYGRAPHICS
 70
     1
  9
$MEASUREMENT
 70
     1
  9
$CELWEIGHT
370
    -1
  9
$ENDCAPS
280
     0
  9
$JOINSTYLE
280
     0
  9
$LWDISPLAY
290
     1
  9
$INSUNITS
 70
     5
  9
$HYPERLINKBASE
  1

  9
$STYLESHEET
  1

  9
$XEDIT
290
     1
  9
$CEPSNTYPE
380
     0
  9
$PSTYLEMODE
290
     1
  9
$FINGERPRINTGUID
  2
{315158d5-a69b-49ea-8cde-f0fb81abbc54}
  9
$VERSIONGUID
  2
{FAEB1C32-E019-11D5-929B-00C0DF256EC4}
  9
$EXTNAMES
290
     1
  9
$PSVPSCALE
 40
0.0
  9
$OLESTARTUP
290
     0
  0
ENDSEC
  0
SECTION
  2
CLASSES
  0
CLASS
  1
ACDBDICTIONARYWDFLT
  2
AcDbDictionaryWithDefault
  3
ObjectDBX Classes
 90
        0
280
     0
281
     0
  0
CLASS
  1
VISUALSTYLE
  2
AcDbVisualStyle
  3
ObjectDBX Classes
 90
     4095
280
     0
281
     0
  0
CLASS
  1
MATERIAL
  2
AcDbMaterial
  3
ObjectDBX Classes
 90
     1153
280
     0
281
     0
  0
CLASS
  1
SCALE
  2
AcDbScale
  3
ObjectDBX Classes
 90
     1153
280
     0
281
     0
  0
CLASS
  1
TABLESTYLE
  2
AcDbTableStyle
  3
ObjectDBX Classes
 90
     4095
280
     0
281
     0
  0
CLASS
  1
MLEADERSTYLE
  2
AcDbMLeaderStyle
  3
ACDB_MLEADERSTYLE_CLASS
 90
     4095
280
     0
281
     0
  0
CLASS
  1
SUN
  2
AcDbSun
  3
SCENEOE
 90
     1153
280
     0
281
     0
  0
CLASS
  1
ACDBPLACEHOLDER
  2
AcDbPlaceHolder
  3
ObjectDBX Classes
 90
        0
280
     0
281
     0
  0
CLASS
  1
LAYOUT
  2
AcDbLayout
  3
ObjectDBX Classes
 90
        0
280
     0
281
     0
  0
ENDSEC
  0
SECTION
  2
TABLES
  0
TABLE
  2
VPORT
  5
8
330
0
100
AcDbSymbolTable
 70
     1
  0
VPORT
  5
29
330
8
100
AcDbSymbolTableRecord
100
AcDbViewportTableRecord
  2
*Active
 70
     0
 10
0.0
 20
0.0
 11
1.0
 21
1.0
 12
60.0
 22
30.0
 13
0.0
 23
0.0
 14
10.0
 24
10.0
 15
10.0
 25
10.0
 16
0.0
 26
0.0
 36
1.0
 17
0.0
 27
0.0
 37
0.0
 40
60.0
 41
2.0
 42
50.0
 43
0.0
 44
0.0
 50
0.0
 51
0.0
 71
     0
 72
  2000
 73
     1
 74
     3
 75
     0
 76
     0
 77
     0
 78
     0
281
     0
 65
     1
110
0.0
120
0.0
130
0.0
111
1.0
121
0.0
131
0.0
112
0.0
122
1.0
132
0.0
 79
     0
146
0.0
  0
ENDTAB
  0
TABLE
  2
LTYPE
  5
5
330
0
100
AcDbSymbolTable
 70
     6
  0
LTYPE
  5
14
330
5
100
AcDbSymbolTableRecord
100
AcDbLinetypeTableRecord
  2
ByBlock
 70
     0
  3

 72
    65
 73
     0
 40
0.0
  0
LTYPE
  5
15
330
5
100
AcDbSymbolTableRecord
100
AcDbLinetypeTableRecord
  2
ByLayer
 70
     0
  3

 72
    65
 73
     0
 40
0.0
  0
LTYPE
  5
16
330
5
100
AcDbSymbolTableRecord
100
AcDbLinetypeTableRecord
  2
Continuous
 70
     0
  3
Solid line
 72
    65
 73
     0
 40
0.0
  0
LTYPE
  5
5E
330
5
100
AcDbSymbolTableRecord
100
AcDbLinetypeTableRecord
  2
HIDDEN
 70
     0
  3
Hidden __ __ __ __ __ __ __ __ __ __ __ __ __ __
 72
    65
 73
     2
 40
0.1905
 49
0.127
 74
     0
 49
-0.0635
 74
     0
  0
LTYPE
  5
5F
330
5
100
AcDbSymbolTableRecord
100
AcDbLinetypeTableRecord
  2
PHANTOM
 70
     0
  3
Phantom ______  __  __  ______  __  __  ______
 72
    65
 73
     6
 40
1.27
 49
0.635
 74
     0
 49
-0.127
 74
     0
 49
0.127
 74
     0
 49
-0.127
 74
     0
 49
0.127
 74
     0
 49
-0.127
 74
     0
  0
LTYPE
  5
60
330
5
100
AcDbSymbolTableRecord
100
AcDbLinetypeTableRecord
  2
CENTER
 70
     0
  3
Center ____ _ ____ _ ____ _ ____ _ ____ _ ____
 72
    65
 73
     4
 40
1.016
 49
0.635
 74
     0
 49
-0.127
 74
     0
 49
0.127
 74
     0
 49
-0.127
 74
     0
  0
LTYPE
  5
61
330
5
100
AcDbSymbolTableRecord
100
AcDbLinetypeTableRecord
  2
CENTERX2
 70
     0
  3
Center (2x) ________  __  ________  __  _____
 72
    65
 73
     4
 40
2.032
 49
1.27
 74
     0
 49
-0.254
 74
     0
 49
0.254
 74
     0
 49
-0.254
 74
     0
  0
LTYPE
  5
62
330
5
100
AcDbSymbolTableRecord
100
AcDbLinetypeTableRecord
  2
DOT2
 70
     0
  3
Dot (.5x) ........................................
 72
    65
 73
     2
 40
0.0635
 49
0.0
 74
     0
 49
-0.0635
 74
     0
  0
ENDTAB
  0
TABLE
  2
LAYER
  5
2
330
0
100
AcDbSymbolTable
 70
     1
  0
LAYER
  5
10
330
2
100
AcDbSymbolTableRecord
100
AcDbLayerTableRecord
  2
0
 70
     0
 62
     7
  6
Continuous
370
    -3
390
F
  0
ENDTAB
  0
TABLE
  2
STYLE
  5
3
330
0
100
AcDbSymbolTable
 70
     1
  0
STYLE
  5
11
330
3
100
AcDbSymbolTableRecord
100
AcDbTextStyleTableRecord
  2
Standard
 70
     0
 40
0.0
 41
1.0
 50
0.0
 71
     0
 42
0.35
  3
txt
  4

  0
ENDTAB
  0
TABLE
  2
VIEW
  5
6
330
0
100
AcDbSymbolTable
 70
     0
  0
ENDTAB
  0
TABLE
  2
UCS
  5
7
330
0
100
AcDbSymbolTable
 70
     0
  0
ENDTAB
  0
TABLE
  2
APPID
  5
9
330
0
100
AcDbSymbolTable
 70
     1
  0
APPID
  5
12
330
9
100
AcDbSymbolTableRecord
100
AcDbRegAppTableRecord
  2
ACAD
 70
     0
  0
ENDTAB
  0
TABLE
  2
DIMSTYLE
  5
A
330
0
100
AcDbSymbolTable
 70
     1
100
AcDbDimStyleTable
  0
DIMSTYLE
105
27
330
A
100
AcDbSymbolTableRecord
100
AcDbDimStyleTableRecord
  2
ISO-25
 70
     0
 41
2.5
 42
0.625
 43
3.75
 44
1.25
 73
     0
 74
     0
 77
     1
 78
     8
140
2.5
141
2.5
143
0.0393700787
147
0.625
171
     3
172
     1
178
     0
271
     2
272
     2
274
     3
278
    44
283
     0
284
     8
340
11
  0
ENDTAB
  0
TABLE
  2
BLOCK_RECORD
  5
1
330
0
100
AcDbSymbolTable
 70
     1
  0
BLOCK_RECORD
  5
1F
330
1
100
AcDbSymbolTableRecord
100
AcDbBlockTableRecord
  2
*Model_Space
340
22
  0
BLOCK_RECORD
  5
1B
330
1
100
AcDbSymbolTableRecord
100
AcDbBlockTableRecord
  2
*Paper_Space
340
1E
  0
BLOCK_RECORD
  5
23
330
1
100
AcDbSymbolTableRecord
100
AcDbBlockTableRecord
  2
*Paper_Space0
340
26
  0
ENDTAB
  0
ENDSEC
  0
SECTION
  2
BLOCKS
  0
BLOCK
  5
20
330
1F
100
AcDbEntity
  8
0
100
AcDbBlockBegin
  2
*Model_Space
 70
     0
 10
0.0
 20
0.0
 30
0.0
  3
*Model_Space
  1

  0
ENDBLK
  5
21
330
1F
100
AcDbEntity
  8
0
100
AcDbBlockEnd
  0
BLOCK
  5
1C
330
1B
100
AcDbEntity
 67
     1
  8
0
100
AcDbBlockBegin
  2
*Paper_Space
 70
     0
 10
0.0
 20
0.0
 30
0.0
  3
*Paper_Space
  1

  0
ENDBLK
  5
1D
330
1B
100
AcDbEntity
 67
     1
  8
0
100
AcDbBlockEnd
  0
BLOCK
  5
24
330
23
100
AcDbEntity
  8
0
100
AcDbBlockBegin
  2
*Paper_Space0
 70
     0
 10
0.0
 20
0.0
 30
0.0
  3
*Paper_Space0
  1

  0
ENDBLK
  5
25
330
23
100
AcDbEntity
  8
0
100
AcDbBlockEnd
  0
ENDSEC
  0
SECTION
  2
ENTITIES
  0
CIRCLE
  5
63
330
1F
100
AcDbEntity
  8
0
  6
Continuous
 62
     7
100
AcDbCircle
 10
109.4688826419
 20
52.1378016501
 30
0.0
 40
0.349999999999997
  0
CIRCLE
  5
64
330
1F
100
AcDbEntity
  8
0
  6
Continuous
 62
     7
100
AcDbCircle
 10
116.1688826419
 20
52.1378016501
 30
0.0
 40
0.3499999999999834
  0
CIRCLE
  5
65
330
1F
100
AcDbEntity
  8
0
  6
Continuous
 62
     7
100
AcDbCircle
 10
116.1688826419
 20
57.8378016501
 30
0.0
 40
0.3499999999999834
  0
CIRCLE
  5
66
330
1F
100
AcDbEntity
  8
0
  6
Continuous
 62
     7
100
AcDbCircle
 10
109.4688826419
 20
57.8378016501
 30
0.0
 40
0.349999999999997
  0
ARC
  5
67
330
1F
100
AcDbEntity
  8
0
  6
Continuous
 62
     7
100
AcDbCircle
 10
111.9690905807
 20
52.6287295583
 30
0.0
 40
0.1250000000000071
100
AcDbArc
 50
90.0
 51
270.0
  0
ARC
  5
68
330
1F
100
AcDbEntity
  8
0
  6
Continuous
 62
     7
100
AcDbCircle
 10
113.7582237188
 20
52.6287295583
 30
0.0
 40
0.1250000000000071
100
AcDbArc
 50
270.0
 51
90.0
  0
ARC
  5
69
330
1F
100
AcDbEntity
  8
0
  6
Continuous
 62
     7
100
AcDbCircle
 10
111.9358293074
 20
57.3487295583
 30
0.0
 40
0.125
100
AcDbArc
 50
90.0
 51
270.0
  0
ARC
  5
6A
330
1F
100
AcDbEntity
  8
0
  6
Continuous
 62
     7
100
AcDbCircle
 10
113.7249624455
 20
57.3487295583
 30
0.0
 40
0.125
100
AcDbArc
 50
270.0
 51
90.0
  0
LINE
  5
6B
330
1F
100
AcDbEntity
  8
0
  6
Continuous
 62
     7
100
AcDbLine
 10
103.7408095177
 20
55.8780472629
 30
0.0
 11
103.3408095177
 21
55.8780472629
 31
0.0
  0
LINE
  5
6C
330
1F
100
AcDbEntity
  8
0
  6
Continuous
 62
     7
100
AcDbLine
 10
103.7408095177
 20
56.2580472629
 30
0.0
 11
106.7408095177
 21
56.2580472629
 31
0.0
  0
LINE
  5
6D
330
1F
100
AcDbEntity
  8
0
  6
Continuous
 62
     7
100
AcDbLine
 10
103.7408095177
 20
56.2580472629
 30
0.0
 11
103.7408095177
 21
55.8780472629
 31
0.0
  0
LINE
  5
6E
330
1F
100
AcDbEntity
  8
0
  6
Continuous
 62
     7
100
AcDbLine
 10
103.7408095177
 20
54.5080472629
 30
0.0
 11
106.7408095177
 21
54.5080472629
 31
0.0
  0
LINE
  5
6F
330
1F
100
AcDbEntity
  8
0
  6
Continuous
 62
     7
100
AcDbLine
 10
106.7408095177
 20
56.2580472629
 30
0.0
 11
106.7408095177
 21
55.8780472629
 31
0.0
  0
LINE
  5
70
330
1F
100
AcDbEntity
  8
0
  6
Continuous
 62
     7
100
AcDbLine
 10
103.3408095177
 20
55.8780472629
 30
0.0
 11
103.3408095177
 21
54.8580472629
 31
0.0
  0
LINE
  5
71
330
1F
100
AcDbEntity
  8
0
  6
Continuous
 62
     7
100
AcDbLine
 10
103.3408095177
 20
54.8580472629
 30
0.0
 11
103.7408095177
 21
54.8580472629
 31
0.0
  0
LINE
  5
72
330
1F
100
AcDbEntity
  8
0
  6
Continuous
 62
     7
100
AcDbLine
 10
106.7408095177
 20
55.8780472629
 30
0.0
 11
107.1408095177
 21
55.8780472629
 31
0.0
  0
LINE
  5
73
330
1F
100
AcDbEntity
  8
0
  6
Continuous
 62
     7
100
AcDbLine
 10
107.1408095177
 20
55.8780472629
 30
0.0
 11
107.1408095177
 21
54.8580472629
 31
0.0
  0
LINE
  5
74
330
1F
100
AcDbEntity
  8
0
  6
Continuous
 62
     7
100
AcDbLine
 10
107.1408095177
 20
54.8580472629
 30
0.0
 11
106.7408095177
 21
54.8580472629
 31
0.0
  0
LINE
  5
75
330
1F
100
AcDbEntity
  8
0
  6
Continuous
 62
     7
100
AcDbLine
 10
103.7408095177
 20
54.8580472629
 30
0.0
 11
103.7408095177
 21
54.5080472629
 31
0.0
  0
LINE
  5
76
330
1F
100
AcDbEntity
  8
0
  6
Continuous
 62
     7
100
AcDbLine
 10
106.7408095177
 20
54.8580472629
 30
0.0
 11
106.7408095177
 21
54.5080472629
 31
0.0
  0
LINE
  5
77
330
1F
100
AcDbEntity
  8
0
  6
Continuous
 62
     7
100
AcDbLine
 10
104.1008095177
 20
55.9980472629
 30
0.0
 11
106.3808095177
 21
55.9980472629
 31
0.0
  0
LINE
  5
78
330
1F
100
AcDbEntity
  8
0
  6
Continuous
 62
     7
100
AcDbLine
 10
104.1008095177
 20
55.9980472629
 30
0.0
 11
104.1008095177
 21
54.7680472629
 31
0.0
  0
LINE
  5
79
330
1F
100
AcDbEntity
  8
0
  6
Continuous
 62
     7
100
AcDbLine
 10
104.1008095177
 20
54.7680472629
 30
0.0
 11
106.3808095177
 21
54.7680472629
 31
0.0
  0
LINE
  5
7A
330
1F
100
AcDbEntity
  8
0
  6
Continuous
 62
     7
100
AcDbLine
 10
106.3808095177
 20
55.9980472629
 30
0.0
 11
106.3808095177
 21
54.7680472629
 31
0.0
  0
LINE
  5
7B
330
1F
100
AcDbEntity
  8
0
  6
Continuous
 62
     7
100
AcDbLine
 10
103.8063454076
 20
53.7410368309
 30
0.0
 11
103.4063454076
 21
53.7410368309
 31
0.0
  0
LINE
  5
7C
330
1F
100
AcDbEntity
  8
0
  6
Continuous
 62
     7
100
AcDbLine
 10
107.8188826419
 20
58.9887295583
 30
0.0
 11
117.8188826419
 21
58.9887295583
 31
0.0
  0
LINE
  5
7D
330
1F
100
AcDbEntity
  8
0
  6
Continuous
 62
     7
100
AcDbLine
 10
107.8188826419
 20
58.9887295583
 30
0.0
 11
107.8188826419
 21
50.9887295583
 31
0.0
  0
LINE
  5
7E
330
1F
100
AcDbEntity
  8
0
  6
Continuous
 62
     7
100
AcDbLine
 10
107.8188826419
 20
50.9887295583
 30
0.0
 11
117.8188826419
 21
50.9887295583
 31
0.0
  0
LINE
  5
7F
330
1F
100
AcDbEntity
  8
0
  6
Continuous
 62
     7
100
AcDbLine
 10
117.8188826419
 20
58.9887295583
 30
0.0
 11
117.8188826419
 21
50.9887295583
 31
0.0
  0
LINE
  5
80
330
1F
100
AcDbEntity
  8
0
  6
Continuous
 62
     7
100
AcDbLine
 10
103.8063454076
 20
54.1210368309
 30
0.0
 11
106.7063454076
 21
54.1210368309
 31
0.0
  0
LINE
  5
81
330
1F
100
AcDbEntity
  8
0
  6
Continuous
 62
     7
100
AcDbLine
 10
103.8063454076
 20
54.1210368309
 30
0.0
 11
103.8063454076
 21
53.7410368309
 31
0.0
  0
LINE
  5
82
330
1F
100
AcDbEntity
  8
0
  6
Continuous
 62
     7
100
AcDbLine
 10
103.8063454076
 20
52.3710368309
 30
0.0
 11
106.7063454076
 21
52.3710368309
 31
0.0
  0
LINE
  5
83
330
1F
100
AcDbEntity
  8
0
  6
Continuous
 62
     7
100
AcDbLine
 10
106.7063454076
 20
54.1210368309
 30
0.0
 11
106.7063454076
 21
53.7410368309
 31
0.0
  0
LINE
  5
84
330
1F
100
AcDbEntity
  8
0
  6
Continuous
 62
     7
100
AcDbLine
 10
116.0188826419
 20
55.4887295583
 30
0.0
 11
116.3188826419
 21
55.4887295583
 31
0.0
  0
LINE
  5
85
330
1F
100
AcDbEntity
  8
0
  6
Continuous
 62
     7
100
AcDbLine
 10
103.4063454076
 20
53.7410368309
 30
0.0
 11
103.4063454076
 21
52.7210368309
 31
0.0
  0
LINE
  5
86
330
1F
100
AcDbEntity
  8
0
  6
Continuous
 62
     7
100
AcDbLine
 10
103.4063454076
 20
52.7210368309
 30
0.0
 11
103.8063454076
 21
52.7210368309
 31
0.0
  0
LINE
  5
87
330
1F
100
AcDbEntity
  8
0
  6
Continuous
 62
     7
100
AcDbLine
 10
106.7063454076
 20
53.7410368309
 30
0.0
 11
107.1063454076
 21
53.7410368309
 31
0.0
  0
LINE
  5
88
330
1F
100
AcDbEntity
  8
0
  6
Continuous
 62
     7
100
AcDbLine
 10
107.1063454076
 20
53.7410368309
 30
0.0
 11
107.1063454076
 21
52.7210368309
 31
0.0
  0
LINE
  5
89
330
1F
100
AcDbEntity
  8
0
  6
Continuous
 62
     7
100
AcDbLine
 10
107.1063454076
 20
52.7210368309
 30
0.0
 11
106.7063454076
 21
52.7210368309
 31
0.0
  0
LINE
  5
8A
330
1F
100
AcDbEntity
  8
0
  6
Continuous
 62
     7
100
AcDbLine
 10
103.8063454076
 20
52.7210368309
 30
0.0
 11
103.8063454076
 21
52.3710368309
 31
0.0
  0
LINE
  5
8B
330
1F
100
AcDbEntity
  8
0
  6
Continuous
 62
     7
100
AcDbLine
 10
106.7063454076
 20
52.7210368309
 30
0.0
 11
106.7063454076
 21
52.3710368309
 31
0.0
  0
LINE
  5
8C
330
1F
100
AcDbEntity
  8
0
  6
Continuous
 62
     7
100
AcDbLine
 10
104.1163454076
 20
53.8610368309
 30
0.0
 11
106.3963454076
 21
53.8610368309
 31
0.0
  0
LINE
  5
8D
330
1F
100
AcDbEntity
  8
0
  6
Continuous
 62
     7
100
AcDbLine
 10
104.1163454076
 20
53.8610368309
 30
0.0
 11
104.1163454076
 21
52.6310368309
 31
0.0
  0
LINE
  5
8E
330
1F
100
AcDbEntity
  8
0
  6
Continuous
 62
     7
100
AcDbLine
 10
104.1163454076
 20
52.6310368309
 30
0.0
 11
106.3963454076
 21
52.6310368309
 31
0.0
  0
LINE
  5
8F
330
1F
100
AcDbEntity
  8
0
  6
Continuous
 62
     7
100
AcDbLine
 10
106.3963454076
 20
53.8610368309
 30
0.0
 11
106.3963454076
 21
52.6310368309
 31
0.0
  0
LINE
  5
90
330
1F
100
AcDbEntity
  8
0
  6
Continuous
 62
     7
100
AcDbLine
 10
116.0188826419
 20
55.4887295583
 30
0.0
 11
116.0188826419
 21
54.4887295583
 31
0.0
  0
LINE
  5
91
330
1F
100
AcDbEntity
  8
0
  6
Continuous
 62
     7
100
AcDbLine
 10
116.0188826419
 20
54.4887295583
 30
0.0
 11
116.3188826419
 21
54.4887295583
 31
0.0
  0
LINE
  5
92
330
1F
100
AcDbEntity
  8
0
  6
Continuous
 62
     7
100
AcDbLine
 10
116.3188826419
 20
55.4887295583
 30
0.0
 11
116.3188826419
 21
54.4887295583
 31
0.0
  0
LINE
  5
93
330
1F
100
AcDbEntity
  8
0
  6
CENTERX2
 62
     7
100
AcDbLine
 10
116.0188826419
 20
55.4887295583
 30
0.0
 11
116.3188826419
 21
54.4887295583
 31
0.0
  0
LINE
  5
94
330
1F
100
AcDbEntity
  8
0
  6
CENTERX2
 62
     7
100
AcDbLine
 10
116.0188826419
 20
54.4887295583
 30
0.0
 11
116.3188826419
 21
55.4887295583
 31
0.0
  0
LINE
  5
95
330
1F
100
AcDbEntity
  8
0
  6
Continuous
 62
     7
100
AcDbLine
 10
109.3188826419
 20
55.4887295583
 30
0.0
 11
109.6188826419
 21
55.4887295583
 31
0.0
  0
LINE
  5
96
330
1F
100
AcDbEntity
  8
0
  6
Continuous
 62
     7
100
AcDbLine
 10
109.3188826419
 20
55.4887295583
 30
0.0
 11
109.3188826419
 21
54.4887295583
 31
0.0
  0
LINE
  5
97
330
1F
100
AcDbEntity
  8
0
  6
Continuous
 62
     7
100
AcDbLine
 10
109.3188826419
 20
54.4887295583
 30
0.0
 11
109.6188826419
 21
54.4887295583
 31
0.0
  0
LINE
  5
98
330
1F
100
AcDbEntity
  8
0
  6
Continuous
 62
     7
100
AcDbLine
 10
109.6188826419
 20
55.4887295583
 30
0.0
 11
109.6188826419
 21
54.4887295583
 31
0.0
  0
LINE
  5
99
330
1F
100
AcDbEntity
  8
0
  6
CENTERX2
 62
     7
100
AcDbLine
 10
109.3188826419
 20
55.4887295583
 30
0.0
 11
109.6188826419
 21
54.4887295583
 31
0.0
  0
LINE
  5
9A
330
1F
100
AcDbEntity
  8
0
  6
CENTERX2
 62
     7
100
AcDbLine
 10
109.3188826419
 20
54.4887295583
 30
0.0
 11
109.6188826419
 21
55.4887295583
 31
0.0
  0
LINE
  5
9B
330
1F
100
AcDbEntity
  8
0
  6
Continuous
 62
     7
100
AcDbLine
 10
112.3188826419
 20
57.9887295583
 30
0.0
 11
113.3188826419
 21
57.9887295583
 31
0.0
  0
LINE
  5
9C
330
1F
100
AcDbEntity
  8
0
  6
Continuous
 62
     7
100
AcDbLine
 10
112.3188826419
 20
57.9887295583
 30
0.0
 11
112.3188826419
 21
57.6887295583
 31
0.0
  0
LINE
  5
9D
330
1F
100
AcDbEntity
  8
0
  6
Continuous
 62
     7
100
AcDbLine
 10
112.3188826419
 20
57.6887295583
 30
0.0
 11
113.3188826419
 21
57.6887295583
 31
0.0
  0
LINE
  5
9E
330
1F
100
AcDbEntity
  8
0
  6
Continuous
 62
     7
100
AcDbLine
 10
113.3188826419
 20
57.9887295583
 30
0.0
 11
113.3188826419
 21
57.6887295583
 31
0.0
  0
LINE
  5
9F
330
1F
100
AcDbEntity
  8
0
  6
CENTERX2
 62
     7
100
AcDbLine
 10
112.3188826419
 20
57.9887295583
 30
0.0
 11
113.3188826419
 21
57.6887295583
 31
0.0
  0
LINE
  5
A0
330
1F
100
AcDbEntity
  8
0
  6
CENTERX2
 62
     7
100
AcDbLine
 10
112.3188826419
 20
57.6887295583
 30
0.0
 11
113.3188826419
 21
57.9887295583
 31
0.0
  0
LINE
  5
A1
330
1F
100
AcDbEntity
  8
0
  6
Continuous
 62
     7
100
AcDbLine
 10
113.3188826419
 20
52.2887295583
 30
0.0
 11
112.3188826419
 21
52.2887295583
 31
0.0
  0
LINE
  5
A2
330
1F
100
AcDbEntity
  8
0
  6
Continuous
 62
     7
100
AcDbLine
 10
113.3188826419
 20
52.2887295583
 30
0.0
 11
113.3188826419
 21
51.9887295583
 31
0.0
  0
LINE
  5
A3
330
1F
100
AcDbEntity
  8
0
  6
Continuous
 62
     7
100
AcDbLine
 10
113.3188826419
 20
51.9887295583
 30
0.0
 11
112.3188826419
 21
51.9887295583
 31
0.0
  0
LINE
  5
A4
330
1F
100
AcDbEntity
  8
0
  6
Continuous
 62
     7
100
AcDbLine
 10
112.3188826419
 20
52.2887295583
 30
0.0
 11
112.3188826419
 21
51.9887295583
 31
0.0
  0
LINE
  5
A5
330
1F
100
AcDbEntity
  8
0
  6
CENTERX2
 62
     7
100
AcDbLine
 10
113.3188826419
 20
52.2887295583
 30
0.0
 11
112.3188826419
 21
51.9887295583
 31
0.0
  0
LINE
  5
A6
330
1F
100
AcDbEntity
  8
0
  6
CENTERX2
 62
     7
100
AcDbLine
 10
113.3188826419
 20
51.9887295583
 30
0.0
 11
112.3188826419
 21
52.2887295583
 31
0.0
  0
LINE
  5
A7
330
1F
100
AcDbEntity
  8
0
  6
Continuous
 62
     7
100
AcDbLine
 10
111.9690905807
 20
52.7537295583
 30
0.0
 11
113.7582237188
 21
52.7537295583
 31
0.0
  0
LINE
  5
A8
330
1F
100
AcDbEntity
  8
0
  6
Continuous
 62
     7
100
AcDbLine
 10
111.8338826419
 20
57.0237295583
 30
0.0
 11
113.8038826419
 21
57.0237295583
 31
0.0
  0
LINE
  5
A9
330
1F
100
AcDbEntity
  8
0
  6
Continuous
 62
     7
100
AcDbLine
 10
111.8338826419
 20
57.0237295583
 30
0.0
 11
111.8338826419
 21
52.9537295583
 31
0.0
  0
LINE
  5
AA
330
1F
100
AcDbEntity
  8
0
  6
Continuous
 62
     7
100
AcDbLine
 10
111.8338826419
 20
52.9537295583
 30
0.0
 11
113.8038826419
 21
52.9537295583
 31
0.0
  0
LINE
  5
AB
330
1F
100
AcDbEntity
  8
0
  6
Continuous
 62
     7
100
AcDbLine
 10
113.8038826419
 20
57.0237295583
 30
0.0
 11
113.8038826419
 21
52.9537295583
 31
0.0
  0
LINE
  5
AC
330
1F
100
AcDbEntity
  8
0
  6
CENTERX2
 62
     7
100
AcDbLine
 10
111.8338826419
 20
57.0237295583
 30
0.0
 11
113.8038826419
 21
52.9537295583
 31
0.0
  0
LINE
  5
AD
330
1F
100
AcDbEntity
  8
0
  6
CENTERX2
 62
     7
100
AcDbLine
 10
111.8338826419
 20
52.9537295583
 30
0.0
 11
113.8038826419
 21
57.0237295583
 31
0.0
  0
LINE
  5
AE
330
1F
100
AcDbEntity
  8
0
  6
Continuous
 62
     7
100
AcDbLine
 10
113.7582237188
 20
52.5037295583
 30
0.0
 11
111.9690905807
 21
52.5037295583
 31
0.0
  0
LINE
  5
AF
330
1F
100
AcDbEntity
  8
0
  6
Continuous
 62
     7
100
AcDbLine
 10
111.9358293074
 20
57.4737295583
 30
0.0
 11
113.7249624455
 21
57.4737295583
 31
0.0
  0
LINE
  5
B0
330
1F
100
AcDbEntity
  8
0
  6
Continuous
 62
     7
100
AcDbLine
 10
113.7249624455
 20
57.2237295583
 30
0.0
 11
111.9358293074
 21
57.2237295583
 31
0.0
  0
POINT
  5
B1
330
1F
100
AcDbEntity
  8
0
  6
Continuous
 62
     7
100
AcDbPoint
 10
105.7408095177
 20
55.3830472629
 30
0.0
  0
POINT
  5
B2
330
1F
100
AcDbEntity
  8
0
  6
Continuous
 62
     7
100
AcDbPoint
 10
105.7408095177
 20
55.3830472629
 30
0.0
  0
POINT
  5
B3
330
1F
100
AcDbEntity
  8
0
  6
Continuous
 62
     7
100
AcDbPoint
 10
116.1688826419
 20
54.9887295583
 30
0.0
  0
POINT
  5
B4
330
1F
100
AcDbEntity
  8
0
  6
Continuous
 62
     7
100
AcDbPoint
 10
109.4688826419
 20
54.9887295583
 30
0.0
  0
POINT
  5
B5
330
1F
100
AcDbEntity
  8
0
  6
Continuous
 62
     7
100
AcDbPoint
 10
112.8188826419
 20
58.9887295583
 30
0.0
  0
POINT
  5
B6
330
1F
100
AcDbEntity
  8
0
  6
Continuous
 62
     7
100
AcDbPoint
 10
112.8188826419
 20
54.9887295583
 30
0.0
  0
POINT
  5
B7
330
1F
100
AcDbEntity
  8
0
  6
Continuous
 62
     7
100
AcDbPoint
 10
112.8188826419
 20
57.8387295583
 30
0.0
  0
POINT
  5
B8
330
1F
100
AcDbEntity
  8
0
  6
Continuous
 62
     7
100
AcDbPoint
 10
112.8188826419
 20
52.1387295583
 30
0.0
  0
POINT
  5
B9
330
1F
100
AcDbEntity
  8
0
  6
Continuous
 62
     7
100
AcDbPoint
 10
116.1688826419
 20
57.8378016501
 30
0.0
  0
POINT
  5
BA
330
1F
100
AcDbEntity
  8
0
  6
Continuous
 62
     7
100
AcDbPoint
 10
109.4688826419
 20
57.8378016501
 30
0.0
  0
POINT
  5
BB
330
1F
100
AcDbEntity
  8
0
  6
Continuous
 62
     7
100
AcDbPoint
 10
109.4688826419
 20
52.1378016501
 30
0.0
  0
POINT
  5
BC
330
1F
100
AcDbEntity
  8
0
  6
Continuous
 62
     7
100
AcDbPoint
 10
116.1688826419
 20
52.1378016501
 30
0.0
  0
POINT
  5
BD
330
1F
100
AcDbEntity
  8
0
  6
Continuous
 62
     7
100
AcDbPoint
 10
112.8188826419
 20
54.9887295583
 30
0.0
  0
POINT
  5
BE
330
1F
100
AcDbEntity
  8
0
  6
Continuous
 62
     7
100
AcDbPoint
 10
105.8063454076
 20
53.2460368309
 30
0.0
  0
POINT
  5
BF
330
1F
100
AcDbEntity
  8
0
  6
Continuous
 62
     7
100
AcDbPoint
 10
105.8063454076
 20
53.2460368309
 30
0.0
  0
POINT
  5
C0
330
1F
100
AcDbEntity
  8
0
  6
Continuous
 62
     7
100
AcDbPoint
 10
134.1873137833
 20
59.1252690035
 30
0.0
  0
ARC
  5
C1
330
1F
100
AcDbEntity
  8
0
  6
Continuous
 62
     7
100
AcDbCircle
 10
86.4782724284
 20
52.9603215399
 30
0.0
 40
4.799999999999998
100
AcDbArc
 50
93.9427525273
 51
112.307990378
  0
ARC
  5
C2
330
1F
100
AcDbEntity
  8
0
  6
Continuous
 62
     7
100
AcDbCircle
 10
82.4203419046
 20
56.2675119801
 30
0.0
 40
0.1999999999999909
100
AcDbArc
 50
112.307990378
 51
143.7256384615
  0
ARC
  5
C3
330
1F
100
AcDbEntity
  8
0
  6
Continuous
 62
     7
100
AcDbCircle
 10
87.0492832577
 20
55.2291408943
 30
0.0
 40
1.599999999999996
100
AcDbArc
 50
59.981107557
 51
104.3688705985
  0
ARC
  5
C4
330
1F
100
AcDbEntity
  8
0
  6
Continuous
 62
     7
100
AcDbCircle
 10
99.2779197742
 20
61.4036442
 30
0.0
 40
4.800000000000009
100
AcDbArc
 50
273.9427525273
 51
292.307990378
  0
ARC
  5
C5
330
1F
100
AcDbEntity
  8
0
  6
Continuous
 62
     7
100
AcDbCircle
 10
103.3358502979
 20
58.0964537598
 30
0.0
 40
0.2000000000000143
100
AcDbArc
 50
292.307990378
 51
323.7256384615
  0
ARC
  5
C6
330
1F
100
AcDbEntity
  8
0
  6
Continuous
 62
     7
100
AcDbCircle
 10
98.7069089448
 20
59.1348248456
 30
0.0
 40
1.599999999999998
100
AcDbArc
 50
239.981107557
 51
284.3688705985
  0
ARC
  5
C7
330
1F
100
AcDbEntity
  8
0
  6
Continuous
 62
     7
100
AcDbCircle
 10
92.14339556
 20
53.9805100817
 30
0.0
 40
3.500000000000002
100
AcDbArc
 50
163.398450401
 51
196.601549599
  0
ARC
  5
C8
330
1F
100
AcDbEntity
  8
0
  6
Continuous
 62
     7
100
AcDbCircle
 10
92.14339556
 20
53.9805100817
 30
0.0
 40
3.500000000000002
100
AcDbArc
 50
343.398450401
 51
16.601549599
  0
LINE
  5
C9
330
1F
100
AcDbEntity
  8
0
  6
Continuous
 62
     7
100
AcDbLine
 10
92.4123529267
 20
57.6296516646
 30
0.0
 11
92.4034996659
 21
57.656412287
 31
0.0
  0
LINE
  5
CA
330
1F
100
AcDbEntity
  8
0
  6
Continuous
 62
     7
100
AcDbLine
 10
92.4034996659
 20
57.656412287
 30
0.0
 11
92.3940099487
 21
57.682947788
 31
0.0
  0
LINE
  5
CB
330
1F
100
AcDbEntity
  8
0
  6
Continuous
 62
     7
100
AcDbLine
 10
92.3940099487
 20
57.682947788
 30
0.0
 11
92.38388924
 21
57.7092428865
 31
0.0
  0
LINE
  5
CC
330
1F
100
AcDbEntity
  8
0
  6
Continuous
 62
     7
100
AcDbLine
 10
92.38388924
 20
57.7092428865
 30
0.0
 11
92.3731433682
 21
57.7352824399
 31
0.0
  0
LINE
  5
CD
330
1F
100
AcDbEntity
  8
0
  6
Continuous
 62
     7
100
AcDbLine
 10
92.3731433682
 20
57.7352824399
 30
0.0
 11
92.3617785214
 21
57.7610514526
 31
0.0
  0
LINE
  5
CE
330
1F
100
AcDbEntity
  8
0
  6
Continuous
 62
     7
100
AcDbLine
 10
92.3617785214
 20
57.7610514526
 30
0.0
 11
92.3498012444
 21
57.7865350848
 31
0.0
  0
LINE
  5
CF
330
1F
100
AcDbEntity
  8
0
  6
Continuous
 62
     7
100
AcDbLine
 10
92.3498012444
 20
57.7865350848
 30
0.0
 11
92.3372184346
 21
57.8117186613
 31
0.0
  0
LINE
  5
D0
330
1F
100
AcDbEntity
  8
0
  6
Continuous
 62
     7
100
AcDbLine
 10
92.3372184346
 20
57.8117186613
 30
0.0
 11
92.3240373381
 21
57.8365876794
 31
0.0
  0
LINE
  5
D1
330
1F
100
AcDbEntity
  8
0
  6
Continuous
 62
     7
100
AcDbLine
 10
94.7608560625
 20
58.4087288455
 30
0.0
 11
94.7329823722
 21
58.4114773888
 31
0.0
  0
LINE
  5
D2
330
1F
100
AcDbEntity
  8
0
  6
Continuous
 62
     7
100
AcDbLine
 10
94.7329823722
 20
58.4114773888
 30
0.0
 11
94.7050475915
 21
58.4135523921
 31
0.0
  0
LINE
  5
D3
330
1F
100
AcDbEntity
  8
0
  6
Continuous
 62
     7
100
AcDbLine
 10
94.7050475915
 20
58.4135523921
 30
0.0
 11
94.6770677598
 21
58.414952664
 31
0.0
  0
LINE
  5
D4
330
1F
100
AcDbEntity
  8
0
  6
Continuous
 62
     7
100
AcDbLine
 10
94.6770677598
 20
58.414952664
 30
0.0
 11
94.6490589426
 21
58.4156774006
 31
0.0
  0
LINE
  5
D5
330
1F
100
AcDbEntity
  8
0
  6
Continuous
 62
     7
100
AcDbLine
 10
94.6490589426
 20
58.4156774006
 30
0.0
 11
94.621037222
 21
58.4157261855
 31
0.0
  0
LINE
  5
D6
330
1F
100
AcDbEntity
  8
0
  6
Continuous
 62
     7
100
AcDbLine
 10
94.621037222
 20
58.4157261855
 30
0.0
 11
94.5930186873
 21
58.4150989909
 31
0.0
  0
LINE
  5
D7
330
1F
100
AcDbEntity
  8
0
  6
Continuous
 62
     7
100
AcDbLine
 10
94.5930186873
 20
58.4150989909
 30
0.0
 11
94.5650194264
 21
58.4137961769
 31
0.0
  0
LINE
  5
D8
330
1F
100
AcDbEntity
  8
0
  6
Continuous
 62
     7
100
AcDbLine
 10
94.5650194264
 20
58.4137961769
 30
0.0
 11
94.5370555157
 21
58.4118184915
 31
0.0
  0
LINE
  5
D9
330
1F
100
AcDbEntity
  8
0
  6
Continuous
 62
     7
100
AcDbLine
 10
90.2590705581
 20
56.5654308709
 30
0.0
 11
87.934696245
 21
56.5654308709
 31
0.0
  0
LINE
  5
DA
330
1F
100
AcDbEntity
  8
0
  6
Continuous
 62
     7
100
AcDbLine
 10
90.2078776066
 20
57.7965671628
 30
0.0
 11
86.8389405617
 21
57.7965671628
 31
0.0
  0
LINE
  5
DB
330
1F
100
AcDbEntity
  8
0
  6
Continuous
 62
     7
100
AcDbLine
 10
86.4657364227
 20
56.7313166669
 30
0.0
 11
82.4606366792
 21
56.434714151
 31
0.0
  0
LINE
  5
DC
330
1F
100
AcDbEntity
  8
0
  6
Continuous
 62
     7
100
AcDbLine
 10
82.3444248678
 20
56.4525433383
 30
0.0
 11
84.6562635446
 21
57.4010741369
 31
0.0
  0
LINE
  5
DD
330
1F
100
AcDbEntity
  8
0
  6
Continuous
 62
     7
100
AcDbLine
 10
94.4923164954
 20
56.0681263525
 30
0.0
 11
94.5201904221
 21
56.0653777888
 31
0.0
  0
LINE
  5
DE
330
1F
100
AcDbEntity
  8
0
  6
Continuous
 62
     7
100
AcDbLine
 10
94.5201904221
 20
56.0653777888
 30
0.0
 11
94.5481254402
 21
56.0633027764
 31
0.0
  0
LINE
  5
DF
330
1F
100
AcDbEntity
  8
0
  6
Continuous
 62
     7
100
AcDbLine
 10
94.5481254402
 20
56.0633027764
 30
0.0
 11
94.5761055097
 21
56.0619025069
 31
0.0
  0
LINE
  5
E0
330
1F
100
AcDbEntity
  8
0
  6
Continuous
 62
     7
100
AcDbLine
 10
94.5761055097
 20
56.0619025069
 30
0.0
 11
94.6041145648
 21
56.0611777843
 31
0.0
  0
LINE
  5
E1
330
1F
100
AcDbEntity
  8
0
  6
Continuous
 62
     7
100
AcDbLine
 10
94.6041145648
 20
56.0611777843
 30
0.0
 11
94.6321365229
 21
56.0611290247
 31
0.0
  0
LINE
  5
E2
330
1F
100
AcDbEntity
  8
0
  6
Continuous
 62
     7
100
AcDbLine
 10
94.6321365229
 20
56.0611290247
 30
0.0
 11
94.6601552944
 21
56.0617562561
 31
0.0
  0
LINE
  5
E3
330
1F
100
AcDbEntity
  8
0
  6
Continuous
 62
     7
100
AcDbLine
 10
94.6601552944
 20
56.0617562561
 30
0.0
 11
94.688154791
 21
56.0630591184
 31
0.0
  0
LINE
  5
E4
330
1F
100
AcDbEntity
  8
0
  6
Continuous
 62
     7
100
AcDbLine
 10
94.688154791
 20
56.0630591184
 30
0.0
 11
94.7161189358
 21
56.0650368634
 31
0.0
  0
LINE
  5
E5
330
1F
100
AcDbEntity
  8
0
  6
Continuous
 62
     7
100
AcDbLine
 10
86.8389405617
 20
57.7965671628
 30
0.0
 11
86.1482257911
 21
57.7489611397
 31
0.0
  0
LINE
  5
E6
330
1F
100
AcDbEntity
  8
0
  6
Continuous
 62
     7
100
AcDbLine
 10
87.934696245
 20
56.5654308709
 30
0.0
 11
87.8497401089
 21
56.6145176768
 31
0.0
  0
LINE
  5
E7
330
1F
100
AcDbEntity
  8
0
  6
Continuous
 62
     7
100
AcDbLine
 10
86.6522214832
 20
56.7790899087
 30
0.0
 11
86.4657364227
 21
56.7313166669
 31
0.0
  0
LINE
  5
E8
330
1F
100
AcDbEntity
  8
0
  6
Continuous
 62
     7
100
AcDbLine
 10
82.1861167102
 20
56.2863900574
 30
0.0
 11
82.4606366792
 21
56.434714151
 31
0.0
  0
LINE
  5
E9
330
1F
100
AcDbEntity
  8
0
  6
Continuous
 62
     7
100
AcDbLine
 10
82.1861167102
 20
56.2863900574
 30
0.0
 11
82.259103282
 21
56.3858424773
 31
0.0
  0
LINE
  5
EA
330
1F
100
AcDbEntity
  8
0
  6
Continuous
 62
     7
100
AcDbLine
 10
95.4971216444
 20
57.798534869
 30
0.0
 11
97.8214959575
 21
57.798534869
 31
0.0
  0
LINE
  5
EB
330
1F
100
AcDbEntity
  8
0
  6
Continuous
 62
     7
100
AcDbLine
 10
95.5483145959
 20
56.5673985771
 30
0.0
 11
98.9172516408
 21
56.5673985771
 31
0.0
  0
LINE
  5
EC
330
1F
100
AcDbEntity
  8
0
  6
Continuous
 62
     7
100
AcDbLine
 10
99.2904557798
 20
57.6326490729
 30
0.0
 11
103.2955555234
 21
57.9292515889
 31
0.0
  0
LINE
  5
ED
330
1F
100
AcDbEntity
  8
0
  6
Continuous
 62
     7
100
AcDbLine
 10
103.4117673348
 20
57.9114224016
 30
0.0
 11
101.0999286579
 21
56.962891603
 31
0.0
  0
LINE
  5
EE
330
1F
100
AcDbEntity
  8
0
  6
Continuous
 62
     7
100
AcDbLine
 10
95.3360384555
 20
56.3065302446
 30
0.0
 11
95.3577068557
 21
56.3243729286
 31
0.0
  0
LINE
  5
EF
330
1F
100
AcDbEntity
  8
0
  6
Continuous
 62
     7
100
AcDbLine
 10
95.3577068557
 20
56.3243729286
 30
0.0
 11
95.3789488621
 21
56.3427289338
 31
0.0
  0
LINE
  5
F0
330
1F
100
AcDbEntity
  8
0
  6
Continuous
 62
     7
100
AcDbLine
 10
95.3789488621
 20
56.3427289338
 30
0.0
 11
95.3997523688
 21
56.3615877989
 31
0.0
  0
LINE
  5
F1
330
1F
100
AcDbEntity
  8
0
  6
Continuous
 62
     7
100
AcDbLine
 10
95.3997523688
 20
56.3615877989
 30
0.0
 11
95.4201055199
 21
56.3809387764
 31
0.0
  0
LINE
  5
F2
330
1F
100
AcDbEntity
  8
0
  6
Continuous
 62
     7
100
AcDbLine
 10
95.4201055199
 20
56.3809387764
 30
0.0
 11
95.4399967159
 21
56.4007708379
 31
0.0
  0
LINE
  5
F3
330
1F
100
AcDbEntity
  8
0
  6
Continuous
 62
     7
100
AcDbLine
 10
95.4399967159
 20
56.4007708379
 30
0.0
 11
95.4594146208
 21
56.4210726811
 31
0.0
  0
LINE
  5
F4
330
1F
100
AcDbEntity
  8
0
  6
Continuous
 62
     7
100
AcDbLine
 10
95.4594146208
 20
56.4210726811
 30
0.0
 11
95.4783481682
 21
56.4418327358
 31
0.0
  0
LINE
  5
F5
330
1F
100
AcDbEntity
  8
0
  6
Continuous
 62
     7
100
AcDbLine
 10
95.4783481682
 20
56.4418327358
 30
0.0
 11
95.4967865678
 21
56.4630391709
 31
0.0
  0
LINE
  5
F6
330
1F
100
AcDbEntity
  8
0
  6
Continuous
 62
     7
100
AcDbLine
 10
93.7101837618
 20
56.5019288866
 30
0.0
 11
93.727854401
 21
56.4801314195
 31
0.0
  0
LINE
  5
F7
330
1F
100
AcDbEntity
  8
0
  6
Continuous
 62
     7
100
AcDbLine
 10
93.727854401
 20
56.4801314195
 30
0.0
 11
93.7460410729
 21
56.4587693498
 31
0.0
  0
LINE
  5
F8
330
1F
100
AcDbEntity
  8
0
  6
Continuous
 62
     7
100
AcDbLine
 10
93.7460410729
 20
56.4587693498
 30
0.0
 11
93.764733335
 21
56.4378549431
 31
0.0
  0
LINE
  5
F9
330
1F
100
AcDbEntity
  8
0
  6
Continuous
 62
     7
100
AcDbLine
 10
93.764733335
 20
56.4378549431
 30
0.0
 11
93.7839204547
 21
56.417400208
 31
0.0
  0
LINE
  5
FA
330
1F
100
AcDbEntity
  8
0
  6
Continuous
 62
     7
100
AcDbLine
 10
93.7839204547
 20
56.417400208
 30
0.0
 11
93.8035914152
 21
56.3974168892
 31
0.0
  0
LINE
  5
FB
330
1F
100
AcDbEntity
  8
0
  6
Continuous
 62
     7
100
AcDbLine
 10
93.8035914152
 20
56.3974168892
 30
0.0
 11
93.8237349217
 21
56.3779164607
 31
0.0
  0
LINE
  5
FC
330
1F
100
AcDbEntity
  8
0
  6
Continuous
 62
     7
100
AcDbLine
 10
93.8237349217
 20
56.3779164607
 30
0.0
 11
93.8443394083
 21
56.3589101192
 31
0.0
  0
LINE
  5
FD
330
1F
100
AcDbEntity
  8
0
  6
Continuous
 62
     7
100
AcDbLine
 10
93.8443394083
 20
56.3589101192
 30
0.0
 11
93.8653930445
 21
56.3404087778
 31
0.0
  0
LINE
  5
FE
330
1F
100
AcDbEntity
  8
0
  6
Continuous
 62
     7
100
AcDbLine
 10
95.4747319558
 20
57.9215656235
 30
0.0
 11
95.4570613166
 21
57.9433630906
 31
0.0
  0
LINE
  5
FF
330
1F
100
AcDbEntity
  8
0
  6
Continuous
 62
     7
100
AcDbLine
 10
95.4570613166
 20
57.9433630906
 30
0.0
 11
95.4388746447
 21
57.9647251603
 31
0.0
  0
LINE
  5
100
330
1F
100
AcDbEntity
  8
0
  6
Continuous
 62
     7
100
AcDbLine
 10
95.4388746447
 20
57.9647251603
 30
0.0
 11
95.4201823826
 21
57.985639567
 31
0.0
  0
LINE
  5
101
330
1F
100
AcDbEntity
  8
0
  6
Continuous
 62
     7
100
AcDbLine
 10
95.4201823826
 20
57.985639567
 30
0.0
 11
95.4009952629
 21
58.0060943021
 31
0.0
  0
LINE
  5
102
330
1F
100
AcDbEntity
  8
0
  6
Continuous
 62
     7
100
AcDbLine
 10
95.4009952629
 20
58.0060943021
 30
0.0
 11
95.3813243024
 21
58.0260776209
 31
0.0
  0
LINE
  5
103
330
1F
100
AcDbEntity
  8
0
  6
Continuous
 62
     7
100
AcDbLine
 10
95.3813243024
 20
58.0260776209
 30
0.0
 11
95.3611807959
 21
58.0455780494
 31
0.0
  0
LINE
  5
104
330
1F
100
AcDbEntity
  8
0
  6
Continuous
 62
     7
100
AcDbLine
 10
95.3611807959
 20
58.0455780494
 30
0.0
 11
95.3405763093
 21
58.0645843909
 31
0.0
  0
LINE
  5
105
330
1F
100
AcDbEntity
  8
0
  6
Continuous
 62
     7
100
AcDbLine
 10
95.3405763093
 20
58.0645843909
 30
0.0
 11
95.3195226731
 21
58.0830857323
 31
0.0
  0
LINE
  5
106
330
1F
100
AcDbEntity
  8
0
  6
Continuous
 62
     7
100
AcDbLine
 10
98.9172516408
 20
56.5673985771
 30
0.0
 11
99.6079664114
 21
56.6150046002
 31
0.0
  0
LINE
  5
107
330
1F
100
AcDbEntity
  8
0
  6
Continuous
 62
     7
100
AcDbLine
 10
97.8214959575
 20
57.798534869
 30
0.0
 11
97.9064520937
 21
57.7494480631
 31
0.0
  0
LINE
  5
108
330
1F
100
AcDbEntity
  8
0
  6
Continuous
 62
     7
100
AcDbLine
 10
99.1039707193
 20
57.5848758311
 30
0.0
 11
99.2904557798
 21
57.6326490729
 31
0.0
  0
LINE
  5
109
330
1F
100
AcDbEntity
  8
0
  6
Continuous
 62
     7
100
AcDbLine
 10
103.5700754923
 20
58.0775756825
 30
0.0
 11
103.2955555234
 21
57.9292515889
 31
0.0
  0
LINE
  5
10A
330
1F
100
AcDbEntity
  8
0
  6
Continuous
 62
     7
100
AcDbLine
 10
103.5700754923
 20
58.0775756825
 30
0.0
 11
103.4970889205
 21
57.9781232625
 31
0.0
  0
LINE
  5
10B
330
1F
100
AcDbEntity
  8
0
  6
Continuous
 62
     7
100
AcDbLine
 10
95.4747319558
 20
57.9215656235
 30
0.0
 11
95.4971216444
 21
57.798534869
 31
0.0
  0
LINE
  5
10C
330
1F
100
AcDbEntity
  8
0
  6
Continuous
 62
     7
100
AcDbLine
 10
95.4967865678
 20
56.4630391709
 30
0.0
 11
95.5483145959
 21
56.5673985771
 31
0.0
  0
LINE
  5
10D
330
1F
100
AcDbEntity
  8
0
  6
Continuous
 62
     7
100
AcDbLine
 10
94.04339556
 20
54.1155100817
 30
0.0
 11
94.04339556
 21
53.8455100817
 31
0.0
  0
LINE
  5
10E
330
1F
100
AcDbEntity
  8
0
  6
Continuous
 62
     7
100
AcDbLine
 10
95.9013103581
 20
51.7745541541
 30
0.0
 11
95.9013103581
 21
52.0745541541
 31
0.0
  0
LINE
  5
10F
330
1F
100
AcDbEntity
  8
0
  6
Continuous
 62
     7
100
AcDbLine
 10
89.24339556
 20
54.1155100817
 30
0.0
 11
89.24339556
 21
53.8455100817
 31
0.0
  0
LINE
  5
110
330
1F
100
AcDbEntity
  8
0
  6
Continuous
 62
     7
100
AcDbLine
 10
94.8647235634
 20
57.2389037457
 30
0.0
 11
94.8469173509
 21
57.3306152144
 31
0.0
  0
LINE
  5
111
330
1F
100
AcDbEntity
  8
0
  6
Continuous
 62
     7
100
AcDbLine
 10
94.8469173509
 20
57.3306152144
 30
0.0
 11
94.7955677627
 21
57.4082919544
 31
0.0
  0
LINE
  5
112
330
1F
100
AcDbEntity
  8
0
  6
Continuous
 62
     7
100
AcDbLine
 10
94.7955677627
 20
57.4082919544
 30
0.0
 11
94.718492308
 21
57.4601083862
 31
0.0
  0
LINE
  5
113
330
1F
100
AcDbEntity
  8
0
  6
Continuous
 62
     7
100
AcDbLine
 10
94.718492308
 20
57.4601083862
 30
0.0
 11
94.6274250261
 21
57.4781759277
 31
0.0
  0
LINE
  5
114
330
1F
100
AcDbEntity
  8
0
  6
Continuous
 62
     7
100
AcDbLine
 10
94.6274250261
 20
57.4781759277
 30
0.0
 11
94.5362300851
 21
57.4597439596
 31
0.0
  0
LINE
  5
115
330
1F
100
AcDbEntity
  8
0
  6
Continuous
 62
     7
100
AcDbLine
 10
94.5362300851
 20
57.4597439596
 30
0.0
 11
94.4587910882
 21
57.4076185819
 31
0.0
  0
LINE
  5
116
330
1F
100
AcDbEntity
  8
0
  6
Continuous
 62
     7
100
AcDbLine
 10
94.4587910882
 20
57.4076185819
 30
0.0
 11
94.4068974206
 21
57.3297354108
 31
0.0
  0
LINE
  5
117
330
1F
100
AcDbEntity
  8
0
  6
Continuous
 62
     7
100
AcDbLine
 10
94.4068974206
 20
57.3297354108
 30
0.0
 11
94.3884494228
 21
57.2379514531
 31
0.0
  0
LINE
  5
118
330
1F
100
AcDbEntity
  8
0
  6
Continuous
 62
     7
100
AcDbLine
 10
94.3884494228
 20
57.2379514531
 30
0.0
 11
94.4062556353
 21
57.1462399844
 31
0.0
  0
LINE
  5
119
330
1F
100
AcDbEntity
  8
0
  6
Continuous
 62
     7
100
AcDbLine
 10
94.4062556353
 20
57.1462399844
 30
0.0
 11
94.4576052235
 21
57.0685632445
 31
0.0
  0
LINE
  5
11A
330
1F
100
AcDbEntity
  8
0
  6
Continuous
 62
     7
100
AcDbLine
 10
94.4576052235
 20
57.0685632445
 30
0.0
 11
94.5346806782
 21
57.0167468127
 31
0.0
  0
LINE
  5
11B
330
1F
100
AcDbEntity
  8
0
  6
Continuous
 62
     7
100
AcDbLine
 10
94.5346806782
 20
57.0167468127
 30
0.0
 11
94.6257479601
 21
56.9986792712
 31
0.0
  0
LINE
  5
11C
330
1F
100
AcDbEntity
  8
0
  6
Continuous
 62
     7
100
AcDbLine
 10
94.6257479601
 20
56.9986792712
 30
0.0
 11
94.7169429011
 21
57.0171112393
 31
0.0
  0
LINE
  5
11D
330
1F
100
AcDbEntity
  8
0
  6
Continuous
 62
     7
100
AcDbLine
 10
94.7169429011
 20
57.0171112393
 30
0.0
 11
94.794381898
 21
57.069236617
 31
0.0
  0
LINE
  5
11E
330
1F
100
AcDbEntity
  8
0
  6
Continuous
 62
     7
100
AcDbLine
 10
94.794381898
 20
57.069236617
 30
0.0
 11
94.8462755656
 21
57.1471197881
 31
0.0
  0
LINE
  5
11F
330
1F
100
AcDbEntity
  8
0
  6
Continuous
 62
     7
100
AcDbLine
 10
94.8462755656
 20
57.1471197881
 30
0.0
 11
94.8647235634
 21
57.2389037457
 31
0.0
  0
LINE
  5
120
330
1F
100
AcDbEntity
  8
0
  6
Continuous
 62
     7
100
AcDbLine
 10
93.9000702135
 20
58.156984782
 30
0.0
 11
93.8783215019
 21
58.1390743422
 31
0.0
  0
LINE
  5
121
330
1F
100
AcDbEntity
  8
0
  6
Continuous
 62
     7
100
AcDbLine
 10
93.8783215019
 20
58.1390743422
 30
0.0
 11
93.857002428
 21
58.1206467703
 31
0.0
  0
LINE
  5
122
330
1F
100
AcDbEntity
  8
0
  6
Continuous
 62
     7
100
AcDbLine
 10
93.857002428
 20
58.1206467703
 30
0.0
 11
93.8361252326
 21
58.1017126472
 31
0.0
  0
LINE
  5
123
330
1F
100
AcDbEntity
  8
0
  6
Continuous
 62
     7
100
AcDbLine
 10
93.8361252326
 20
58.1017126472
 30
0.0
 11
93.8157019032
 21
58.0822828443
 31
0.0
  0
LINE
  5
124
330
1F
100
AcDbEntity
  8
0
  6
Continuous
 62
     7
100
AcDbLine
 10
93.8157019032
 20
58.0822828443
 30
0.0
 11
93.7957441663
 21
58.0623685179
 31
0.0
  0
LINE
  5
125
330
1F
100
AcDbEntity
  8
0
  6
Continuous
 62
     7
100
AcDbLine
 10
93.7957441663
 20
58.0623685179
 30
0.0
 11
93.7762634812
 21
58.0419811023
 31
0.0
  0
LINE
  5
126
330
1F
100
AcDbEntity
  8
0
  6
Continuous
 62
     7
100
AcDbLine
 10
93.7762634812
 20
58.0419811023
 30
0.0
 11
93.7572710333
 21
58.0211323035
 31
0.0
  0
LINE
  5
127
330
1F
100
AcDbEntity
  8
0
  6
Continuous
 62
     7
100
AcDbLine
 10
93.7572710333
 20
58.0211323035
 30
0.0
 11
93.7387777276
 21
57.9998340925
 31
0.0
  0
LINE
  5
128
330
1F
100
AcDbEntity
  8
0
  6
Continuous
 62
     7
100
AcDbLine
 10
93.4648673196
 20
57.367162378
 30
0.0
 11
93.4619836869
 21
57.3390846477
 31
0.0
  0
LINE
  5
129
330
1F
100
AcDbEntity
  8
0
  6
Continuous
 62
     7
100
AcDbLine
 10
93.4619836869
 20
57.3390846477
 30
0.0
 11
93.4597687442
 21
57.3109491224
 31
0.0
  0
LINE
  5
12A
330
1F
100
AcDbEntity
  8
0
  6
Continuous
 62
     7
100
AcDbLine
 10
93.4597687442
 20
57.3109491224
 30
0.0
 11
93.4582237631
 21
57.2827719567
 31
0.0
  0
LINE
  5
12B
330
1F
100
AcDbEntity
  8
0
  6
Continuous
 62
     7
100
AcDbLine
 10
93.4582237631
 20
57.2827719567
 30
0.0
 11
93.4573496308
 21
57.2545693294
 31
0.0
  0
LINE
  5
12C
330
1F
100
AcDbEntity
  8
0
  6
Continuous
 62
     7
100
AcDbLine
 10
93.4573496308
 20
57.2545693294
 30
0.0
 11
93.4571468492
 21
57.2263574339
 31
0.0
  0
LINE
  5
12D
330
1F
100
AcDbEntity
  8
0
  6
Continuous
 62
     7
100
AcDbLine
 10
93.4571468492
 20
57.2263574339
 30
0.0
 11
93.4576155347
 21
57.1981524689
 31
0.0
  0
LINE
  5
12E
330
1F
100
AcDbEntity
  8
0
  6
Continuous
 62
     7
100
AcDbLine
 10
93.4576155347
 20
57.1981524689
 30
0.0
 11
93.4587554182
 21
57.1699706289
 31
0.0
  0
LINE
  5
12F
330
1F
100
AcDbEntity
  8
0
  6
Continuous
 62
     7
100
AcDbLine
 10
93.4587554182
 20
57.1699706289
 30
0.0
 11
93.4605658453
 21
57.1418280955
 31
0.0
  0
LINE
  5
130
330
1F
100
AcDbEntity
  8
0
  6
Continuous
 62
     7
100
AcDbLine
 10
90.7619818783
 20
56.2163163457
 30
0.0
 11
90.7870722369
 21
56.2038006297
 31
0.0
  0
LINE
  5
131
330
1F
100
AcDbEntity
  8
0
  6
Continuous
 62
     7
100
AcDbLine
 10
90.7870722369
 20
56.2038006297
 30
0.0
 11
90.8124569956
 21
56.1918963081
 31
0.0
  0
LINE
  5
132
330
1F
100
AcDbEntity
  8
0
  6
Continuous
 62
     7
100
AcDbLine
 10
90.8124569956
 20
56.1918963081
 30
0.0
 11
90.8381215361
 21
56.1806102363
 31
0.0
  0
LINE
  5
133
330
1F
100
AcDbEntity
  8
0
  6
Continuous
 62
     7
100
AcDbLine
 10
90.8381215361
 20
56.1806102363
 30
0.0
 11
90.8640510791
 21
56.1699489136
 31
0.0
  0
LINE
  5
134
330
1F
100
AcDbEntity
  8
0
  6
Continuous
 62
     7
100
AcDbLine
 10
90.8640510791
 20
56.1699489136
 30
0.0
 11
90.8902306923
 21
56.1599184796
 31
0.0
  0
LINE
  5
135
330
1F
100
AcDbEntity
  8
0
  6
Continuous
 62
     7
100
AcDbLine
 10
90.8902306923
 20
56.1599184796
 30
0.0
 11
90.9166453
 21
56.1505247103
 31
0.0
  0
LINE
  5
136
330
1F
100
AcDbEntity
  8
0
  6
Continuous
 62
     7
100
AcDbLine
 10
90.9166453
 20
56.1505247103
 30
0.0
 11
90.9432796906
 21
56.1417730155
 31
0.0
  0
LINE
  5
137
330
1F
100
AcDbEntity
  8
0
  6
Continuous
 62
     7
100
AcDbLine
 10
90.9432796906
 20
56.1417730155
 30
0.0
 11
90.9701185264
 21
56.1336684349
 31
0.0
  0
LINE
  5
138
330
1F
100
AcDbEntity
  8
0
  6
Continuous
 62
     7
100
AcDbLine
 10
90.9427155861
 20
58.3850888355
 30
0.0
 11
90.9160857436
 21
58.3760282692
 31
0.0
  0
LINE
  5
139
330
1F
100
AcDbEntity
  8
0
  6
Continuous
 62
     7
100
AcDbLine
 10
90.9160857436
 20
58.3760282692
 30
0.0
 11
90.8896760051
 21
58.3663281829
 31
0.0
  0
LINE
  5
13A
330
1F
100
AcDbEntity
  8
0
  6
Continuous
 62
     7
100
AcDbLine
 10
90.8896760051
 20
58.3663281829
 30
0.0
 11
90.8635015793
 21
58.3559941625
 31
0.0
  0
LINE
  5
13B
330
1F
100
AcDbEntity
  8
0
  6
Continuous
 62
     7
100
AcDbLine
 10
90.8635015793
 20
58.3559941625
 30
0.0
 11
90.8375775389
 21
58.345032159
 31
0.0
  0
LINE
  5
13C
330
1F
100
AcDbEntity
  8
0
  6
Continuous
 62
     7
100
AcDbLine
 10
90.8375775389
 20
58.345032159
 30
0.0
 11
90.8119188129
 21
58.3334484851
 31
0.0
  0
LINE
  5
13D
330
1F
100
AcDbEntity
  8
0
  6
Continuous
 62
     7
100
AcDbLine
 10
90.8119188129
 20
58.3334484851
 30
0.0
 11
90.786540177
 21
58.3212498113
 31
0.0
  0
LINE
  5
13E
330
1F
100
AcDbEntity
  8
0
  6
Continuous
 62
     7
100
AcDbLine
 10
90.786540177
 20
58.3212498113
 30
0.0
 11
90.7614562462
 21
58.3084431625
 31
0.0
  0
LINE
  5
13F
330
1F
100
AcDbEntity
  8
0
  6
Continuous
 62
     7
100
AcDbLine
 10
90.7614562462
 20
58.3084431625
 30
0.0
 11
90.7366814652
 21
58.2950359137
 31
0.0
  0
LINE
  5
140
330
1F
100
AcDbEntity
  8
0
  6
Continuous
 62
     7
100
AcDbLine
 10
91.8346182104
 20
58.3146665181
 30
0.0
 11
91.8095280171
 21
58.3271821541
 31
0.0
  0
LINE
  5
141
330
1F
100
AcDbEntity
  8
0
  6
Continuous
 62
     7
100
AcDbLine
 10
91.8095280171
 20
58.3271821541
 30
0.0
 11
91.7841434276
 21
58.3390864037
 31
0.0
  0
LINE
  5
142
330
1F
100
AcDbEntity
  8
0
  6
Continuous
 62
     7
100
AcDbLine
 10
91.7841434276
 20
58.3390864037
 30
0.0
 11
91.7584790597
 21
58.3503724117
 31
0.0
  0
LINE
  5
143
330
1F
100
AcDbEntity
  8
0
  6
Continuous
 62
     7
100
AcDbLine
 10
91.7584790597
 20
58.3503724117
 30
0.0
 11
91.7325496926
 21
58.361033679
 31
0.0
  0
LINE
  5
144
330
1F
100
AcDbEntity
  8
0
  6
Continuous
 62
     7
100
AcDbLine
 10
91.7325496926
 20
58.361033679
 30
0.0
 11
91.7063702581
 21
58.371064066
 31
0.0
  0
LINE
  5
145
330
1F
100
AcDbEntity
  8
0
  6
Continuous
 62
     7
100
AcDbLine
 10
91.7063702581
 20
58.371064066
 30
0.0
 11
91.6799558317
 21
58.3804577967
 31
0.0
  0
LINE
  5
146
330
1F
100
AcDbEntity
  8
0
  6
Continuous
 62
     7
100
AcDbLine
 10
91.6799558317
 20
58.3804577967
 30
0.0
 11
91.6533216247
 21
58.3892094616
 31
0.0
  0
LINE
  5
147
330
1F
100
AcDbEntity
  8
0
  6
Continuous
 62
     7
100
AcDbLine
 10
91.6533216247
 20
58.3892094616
 30
0.0
 11
91.6264829745
 21
58.3973140211
 31
0.0
  0
LINE
  5
148
330
1F
100
AcDbEntity
  8
0
  6
Continuous
 62
     7
100
AcDbLine
 10
89.24339556
 20
53.8455100817
 30
0.0
 11
90.24339556
 21
53.8455100817
 31
0.0
  0
LINE
  5
149
330
1F
100
AcDbEntity
  8
0
  6
Continuous
 62
     7
100
AcDbLine
 10
89.24339556
 20
54.1155100817
 30
0.0
 11
90.24339556
 21
54.1155100817
 31
0.0
  0
LINE
  5
14A
330
1F
100
AcDbEntity
  8
0
  6
Continuous
 62
     7
100
AcDbLine
 10
90.24339556
 20
54.1155100817
 30
0.0
 11
90.24339556
 21
53.8455100817
 31
0.0
  0
LINE
  5
14B
330
1F
100
AcDbEntity
  8
0
  6
Continuous
 62
     7
100
AcDbLine
 10
95.04339556
 20
54.1155100817
 30
0.0
 11
94.04339556
 21
54.1155100817
 31
0.0
  0
LINE
  5
14C
330
1F
100
AcDbEntity
  8
0
  6
Continuous
 62
     7
100
AcDbLine
 10
95.04339556
 20
53.8455100817
 30
0.0
 11
94.04339556
 21
53.8455100817
 31
0.0
  0
LINE
  5
14D
330
1F
100
AcDbEntity
  8
0
  6
Continuous
 62
     7
100
AcDbLine
 10
95.04339556
 20
54.1155100817
 30
0.0
 11
95.04339556
 21
53.8455100817
 31
0.0
  0
LINE
  5
14E
330
1F
100
AcDbEntity
  8
0
  6
Continuous
 62
     7
100
AcDbLine
 10
92.3374905737
 20
56.7313166856
 30
0.0
 11
92.3500605203
 21
56.7566458521
 31
0.0
  0
LINE
  5
14F
330
1F
100
AcDbEntity
  8
0
  6
Continuous
 62
     7
100
AcDbLine
 10
92.3500605203
 20
56.7566458521
 30
0.0
 11
92.3620247985
 21
56.7822680432
 31
0.0
  0
LINE
  5
150
330
1F
100
AcDbEntity
  8
0
  6
Continuous
 62
     7
100
AcDbLine
 10
92.3620247985
 20
56.7822680432
 30
0.0
 11
92.3733765186
 21
56.808168504
 31
0.0
  0
LINE
  5
151
330
1F
100
AcDbEntity
  8
0
  6
Continuous
 62
     7
100
AcDbLine
 10
92.3733765186
 20
56.808168504
 30
0.0
 11
92.3841091437
 21
56.8343323194
 31
0.0
  0
LINE
  5
152
330
1F
100
AcDbEntity
  8
0
  6
Continuous
 62
     7
100
AcDbLine
 10
92.3841091437
 20
56.8343323194
 30
0.0
 11
92.3942164931
 21
56.8607444227
 31
0.0
  0
LINE
  5
153
330
1F
100
AcDbEntity
  8
0
  6
Continuous
 62
     7
100
AcDbLine
 10
92.3942164931
 20
56.8607444227
 30
0.0
 11
92.4036927465
 21
56.8873896042
 31
0.0
  0
LINE
  5
154
330
1F
100
AcDbEntity
  8
0
  6
Continuous
 62
     7
100
AcDbLine
 10
92.4036927465
 20
56.8873896042
 30
0.0
 11
92.4125324468
 21
56.91425252
 31
0.0
  0
LINE
  5
155
330
1F
100
AcDbEntity
  8
0
  6
Continuous
 62
     7
100
AcDbLine
 10
92.4125324468
 20
56.91425252
 30
0.0
 11
92.4207305036
 21
56.9413177008
 31
0.0
  0
LINE
  5
156
330
1F
100
AcDbEntity
  8
0
  6
Continuous
 62
     7
100
AcDbLine
 10
91.6538839933
 20
56.1458940274
 30
0.0
 11
91.6805137341
 21
56.1549545576
 31
0.0
  0
LINE
  5
157
330
1F
100
AcDbEntity
  8
0
  6
Continuous
 62
     7
100
AcDbLine
 10
91.6805137341
 20
56.1549545576
 30
0.0
 11
91.7069233725
 21
56.1646546031
 31
0.0
  0
LINE
  5
158
330
1F
100
AcDbEntity
  8
0
  6
Continuous
 62
     7
100
AcDbLine
 10
91.7069233725
 20
56.1646546031
 30
0.0
 11
91.7330977004
 21
56.1749885778
 31
0.0
  0
LINE
  5
159
330
1F
100
AcDbEntity
  8
0
  6
Continuous
 62
     7
100
AcDbLine
 10
91.7330977004
 20
56.1749885778
 30
0.0
 11
91.7590216448
 21
56.1859505309
 31
0.0
  0
LINE
  5
15A
330
1F
100
AcDbEntity
  8
0
  6
Continuous
 62
     7
100
AcDbLine
 10
91.7590216448
 20
56.1859505309
 30
0.0
 11
91.7846802771
 21
56.1975341497
 31
0.0
  0
LINE
  5
15B
330
1F
100
AcDbEntity
  8
0
  6
Continuous
 62
     7
100
AcDbLine
 10
91.7846802771
 20
56.1975341497
 30
0.0
 11
91.8100588217
 21
56.2097327638
 31
0.0
  0
LINE
  5
15C
330
1F
100
AcDbEntity
  8
0
  6
Continuous
 62
     7
100
AcDbLine
 10
91.8100588217
 20
56.2097327638
 30
0.0
 11
91.8351426639
 21
56.2225393484
 31
0.0
  0
LINE
  5
15D
330
1F
100
AcDbEntity
  8
0
  6
Continuous
 62
     7
100
AcDbLine
 10
91.8351426639
 20
56.2225393484
 30
0.0
 11
91.859917359
 21
56.2359465287
 31
0.0
  0
LINE
  5
15E
330
1F
100
AcDbEntity
  8
0
  6
Continuous
 62
     7
100
AcDbLine
 10
91.5364623753
 20
57.2659676287
 30
0.0
 11
91.5186542741
 21
57.3576888258
 31
0.0
  0
LINE
  5
15F
330
1F
100
AcDbEntity
  8
0
  6
Continuous
 62
     7
100
AcDbLine
 10
91.5186542741
 20
57.3576888258
 30
0.0
 11
91.4672992388
 21
57.4353738055
 31
0.0
  0
LINE
  5
160
330
1F
100
AcDbEntity
  8
0
  6
Continuous
 62
     7
100
AcDbLine
 10
91.4672992388
 20
57.4353738055
 30
0.0
 11
91.3902156082
 21
57.4871957337
 31
0.0
  0
LINE
  5
161
330
1F
100
AcDbEntity
  8
0
  6
Continuous
 62
     7
100
AcDbLine
 10
91.3902156082
 20
57.4871957337
 30
0.0
 11
91.2991386662
 21
57.5052651918
 31
0.0
  0
LINE
  5
162
330
1F
100
AcDbEntity
  8
0
  6
Continuous
 62
     7
100
AcDbLine
 10
91.2991386662
 20
57.5052651918
 30
0.0
 11
91.2079340517
 21
57.4868312685
 31
0.0
  0
LINE
  5
163
330
1F
100
AcDbEntity
  8
0
  6
Continuous
 62
     7
100
AcDbLine
 10
91.2079340517
 20
57.4868312685
 30
0.0
 11
91.1304868403
 21
57.4347003615
 31
0.0
  0
LINE
  5
164
330
1F
100
AcDbEntity
  8
0
  6
Continuous
 62
     7
100
AcDbLine
 10
91.1304868403
 20
57.4347003615
 30
0.0
 11
91.078587668
 21
57.3568089289
 31
0.0
  0
LINE
  5
165
330
1F
100
AcDbEntity
  8
0
  6
Continuous
 62
     7
100
AcDbLine
 10
91.078587668
 20
57.3568089289
 30
0.0
 11
91.0601377133
 21
57.2650152351
 31
0.0
  0
LINE
  5
166
330
1F
100
AcDbEntity
  8
0
  6
Continuous
 62
     7
100
AcDbLine
 10
91.0601377133
 20
57.2650152351
 30
0.0
 11
91.0779458146
 21
57.173294038
 31
0.0
  0
LINE
  5
167
330
1F
100
AcDbEntity
  8
0
  6
Continuous
 62
     7
100
AcDbLine
 10
91.0779458146
 20
57.173294038
 30
0.0
 11
91.1293008498
 21
57.0956090584
 31
0.0
  0
LINE
  5
168
330
1F
100
AcDbEntity
  8
0
  6
Continuous
 62
     7
100
AcDbLine
 10
91.1293008498
 20
57.0956090584
 30
0.0
 11
91.2063844804
 21
57.0437871301
 31
0.0
  0
LINE
  5
169
330
1F
100
AcDbEntity
  8
0
  6
Continuous
 62
     7
100
AcDbLine
 10
91.2063844804
 20
57.0437871301
 30
0.0
 11
91.2974614224
 21
57.025717672
 31
0.0
  0
LINE
  5
16A
330
1F
100
AcDbEntity
  8
0
  6
Continuous
 62
     7
100
AcDbLine
 10
91.2974614224
 20
57.025717672
 30
0.0
 11
91.388666037
 21
57.0441515953
 31
0.0
  0
LINE
  5
16B
330
1F
100
AcDbEntity
  8
0
  6
Continuous
 62
     7
100
AcDbLine
 10
91.388666037
 20
57.0441515953
 30
0.0
 11
91.4661132483
 21
57.0962825023
 31
0.0
  0
LINE
  5
16C
330
1F
100
AcDbEntity
  8
0
  6
Continuous
 62
     7
100
AcDbLine
 10
91.4661132483
 20
57.0962825023
 30
0.0
 11
91.5180124206
 21
57.174173935
 31
0.0
  0
LINE
  5
16D
330
1F
100
AcDbEntity
  8
0
  6
Continuous
 62
     7
100
AcDbLine
 10
91.5180124206
 20
57.174173935
 30
0.0
 11
91.5364623753
 21
57.2659676287
 31
0.0
  0
LINE
  5
16E
330
1F
100
AcDbEntity
  8
0
  6
Continuous
 62
     7
100
AcDbLine
 10
96.9213103581
 20
52.0745541541
 30
0.0
 11
96.9213103581
 21
51.7745541541
 31
0.0
  0
LINE
  5
16F
330
1F
100
AcDbEntity
  8
0
  6
Continuous
 62
     7
100
AcDbLine
 10
96.9213103581
 20
51.7745541541
 30
0.0
 11
95.9013103581
 21
51.7745541541
 31
0.0
  0
LINE
  5
170
330
1F
100
AcDbEntity
  8
0
  6
Continuous
 62
     7
100
AcDbLine
 10
96.9213103581
 20
52.0745541541
 30
0.0
 11
100.7013103581
 21
52.0745541541
 31
0.0
  0
LINE
  5
171
330
1F
100
AcDbEntity
  8
0
  6
Continuous
 62
     7
100
AcDbLine
 10
101.7213103581
 20
52.0745541541
 30
0.0
 11
101.7213103581
 21
51.7745541541
 31
0.0
  0
LINE
  5
172
330
1F
100
AcDbEntity
  8
0
  6
Continuous
 62
     7
100
AcDbLine
 10
101.7213103581
 20
51.7745541541
 30
0.0
 11
100.7013103581
 21
51.7745541541
 31
0.0
  0
LINE
  5
173
330
1F
100
AcDbEntity
  8
0
  6
Continuous
 62
     7
100
AcDbLine
 10
100.7013103581
 20
51.7745541541
 30
0.0
 11
100.7013103581
 21
52.0745541541
 31
0.0
  0
LINE
  5
174
330
1F
100
AcDbEntity
  8
0
  6
Continuous
 62
     7
100
AcDbLine
 10
95.9013103581
 20
52.0745541541
 30
0.0
 11
95.9013103581
 21
56.0745541541
 31
0.0
  0
LINE
  5
175
330
1F
100
AcDbEntity
  8
0
  6
Continuous
 62
     7
100
AcDbLine
 10
95.9013103581
 20
56.0745541541
 30
0.0
 11
101.7213103581
 21
56.0745541541
 31
0.0
  0
LINE
  5
176
330
1F
100
AcDbEntity
  8
0
  6
Continuous
 62
     7
100
AcDbLine
 10
101.7213103581
 20
56.0745541541
 30
0.0
 11
101.7213103581
 21
52.0745541541
 31
0.0
  0
LINE
  5
177
330
1F
100
AcDbEntity
  8
0
  6
Continuous
 62
     7
100
AcDbLine
 10
88.7892935938
 20
54.9805100817
 30
0.0
 11
95.4974975263
 21
54.9805100817
 31
0.0
  0
LINE
  5
178
330
1F
100
AcDbEntity
  8
0
  6
Continuous
 62
     7
100
AcDbLine
 10
88.7892935938
 20
52.9805100817
 30
0.0
 11
95.4974975263
 21
52.9805100817
 31
0.0
  0
LINE
  5
179
330
1F
100
AcDbEntity
  8
0
  6
Continuous
 62
     7
100
AcDbLine
 10
93.0321822589
 20
56.6005672404
 30
0.0
 11
93.0992967963
 21
56.4502074791
 31
0.0
  0
LINE
  5
17A
330
1F
100
AcDbEntity
  8
0
  6
Continuous
 62
     7
100
AcDbLine
 10
91.1548741285
 20
55.5460808093
 30
0.0
 11
91.3188546823
 21
55.5410444747
 31
0.0
  0
LINE
  5
17B
330
1F
100
AcDbEntity
  8
0
  6
Continuous
 62
     7
100
AcDbLine
 10
93.0573686017
 20
57.9199628851
 30
0.0
 11
92.9989564708
 21
57.7652781749
 31
0.0
  0
LINE
  5
17C
330
1F
100
AcDbEntity
  8
0
  6
Continuous
 62
     7
100
AcDbLine
 10
92.4039834226
 20
55.9542755604
 30
0.0
 11
92.5241111248
 21
56.0674715257
 31
0.0
  0
LINE
  5
17D
330
1F
100
AcDbEntity
  8
0
  6
Continuous
 62
     7
100
AcDbLine
 10
93.0321822589
 20
56.6005672404
 30
0.0
 11
92.9797049977
 21
56.756782818
 31
0.0
  0
LINE
  5
17E
330
1F
100
AcDbEntity
  8
0
  6
Continuous
 62
     7
100
AcDbLine
 10
92.6329723114
 20
56.191678576
 30
0.0
 11
92.5241111248
 21
56.0674715257
 31
0.0
  0
LINE
  5
17F
330
1F
100
AcDbEntity
  8
0
  6
Continuous
 62
     7
100
AcDbLine
 10
91.482646317
 20
55.551857653
 30
0.0
 11
91.3188546823
 21
55.5410444747
 31
0.0
  0
LINE
  5
180
330
1F
100
AcDbEntity
  8
0
  6
Continuous
 62
     7
100
AcDbLine
 10
92.606818298
 20
58.3858893821
 30
0.0
 11
92.495042477
 21
58.5062078002
 31
0.0
  0
LINE
  5
181
330
1F
100
AcDbEntity
  8
0
  6
Continuous
 62
     7
100
AcDbLine
 10
92.3722673124
 20
58.6151227071
 30
0.0
 11
92.495042477
 21
58.5062078002
 31
0.0
  0
LINE
  5
182
330
1F
100
AcDbEntity
  8
0
  6
Continuous
 62
     7
100
AcDbLine
 10
91.1139537716
 20
58.9791252109
 30
0.0
 11
91.2777454063
 21
58.9899383891
 31
0.0
  0
LINE
  5
183
330
1F
100
AcDbEntity
  8
0
  6
Continuous
 62
     7
100
AcDbLine
 10
95.3121966936
 20
58.8220336557
 30
0.0
 11
95.1588702736
 21
58.8799897593
 31
0.0
  0
LINE
  5
184
330
1F
100
AcDbEntity
  8
0
  6
Continuous
 62
     7
100
AcDbLine
 10
89.9897817906
 20
56.1450934817
 30
0.0
 11
90.1015576116
 21
56.0247750637
 31
0.0
  0
LINE
  5
185
330
1F
100
AcDbEntity
  8
0
  6
Continuous
 62
     7
100
AcDbLine
 10
95.3121966936
 20
58.8220336557
 30
0.0
 11
95.4592289344
 21
58.7495394076
 31
0.0
  0
LINE
  5
186
330
1F
100
AcDbEntity
  8
0
  6
Continuous
 62
     7
100
AcDbLine
 10
94.0017815029
 20
58.8401244026
 30
0.0
 11
94.1572392308
 21
58.8938176314
 31
0.0
  0
LINE
  5
187
330
1F
100
AcDbEntity
  8
0
  6
Continuous
 62
     7
100
AcDbLine
 10
91.4417259602
 20
58.9849020545
 30
0.0
 11
91.2777454063
 21
58.9899383891
 31
0.0
  0
LINE
  5
188
330
1F
100
AcDbEntity
  8
0
  6
Continuous
 62
     7
100
AcDbLine
 10
93.0053983894
 20
57.1305627857
 30
0.0
 11
93.0113040612
 21
57.2956823898
 31
0.0
  0
LINE
  5
189
330
1F
100
AcDbEntity
  8
0
  6
Continuous
 62
     7
100
AcDbLine
 10
94.0017815029
 20
58.8401244026
 30
0.0
 11
93.8520597377
 21
58.771726949
 31
0.0
  0
LINE
  5
18A
330
1F
100
AcDbEntity
  8
0
  6
Continuous
 62
     7
100
AcDbLine
 10
90.2243327763
 20
55.9158601567
 30
0.0
 11
90.1015576116
 21
56.0247750637
 31
0.0
  0
LINE
  5
18B
330
1F
100
AcDbEntity
  8
0
  6
Continuous
 62
     7
100
AcDbLine
 10
89.9213644949
 20
58.3007361006
 30
0.0
 11
90.0302256815
 21
58.4249431509
 31
0.0
  0
LINE
  5
18C
330
1F
100
AcDbEntity
  8
0
  6
Continuous
 62
     7
100
AcDbLine
 10
93.0573686017
 20
57.9199628851
 30
0.0
 11
93.130186788
 21
58.0683908254
 31
0.0
  0
LINE
  5
18D
330
1F
100
AcDbEntity
  8
0
  6
Continuous
 62
     7
100
AcDbLine
 10
93.9409762927
 20
55.6548215432
 30
0.0
 11
94.0943027126
 21
55.5968654396
 31
0.0
  0
LINE
  5
18E
330
1F
100
AcDbEntity
  8
0
  6
Continuous
 62
     7
100
AcDbLine
 10
95.2513928834
 20
55.636730799
 30
0.0
 11
95.0959351556
 21
55.5830375703
 31
0.0
  0
LINE
  5
18F
330
1F
100
AcDbEntity
  8
0
  6
Continuous
 62
     7
100
AcDbLine
 10
93.9409762927
 20
55.6548215432
 30
0.0
 11
93.7939440518
 21
55.7273157912
 31
0.0
  0
LINE
  5
190
330
1F
100
AcDbEntity
  8
0
  6
Continuous
 62
     7
100
AcDbLine
 10
95.2513928834
 20
55.636730799
 30
0.0
 11
95.4011146486
 21
55.7051282527
 31
0.0
  0
LINE
  5
191
330
1F
100
AcDbEntity
  8
0
  6
Continuous
 62
     7
100
AcDbLine
 10
93.001465393
 20
57.4605245066
 30
0.0
 11
93.0113040612
 21
57.2956823898
 31
0.0
  0
LINE
  5
192
330
1F
100
AcDbEntity
  8
0
  6
Continuous
 62
     7
100
AcDbLine
 10
90.1503533837
 20
58.5381391163
 30
0.0
 11
90.0302256815
 21
58.4249431509
 31
0.0
  0
SPLINE
  5
193
330
1F
100
AcDbEntity
  8
0
  6
Continuous
 62
     7
100
AcDbSpline
210
0.0
220
0.0
230
1.0
 70
     8
 71
     3
 72
    30
 73
    26
 74
     0
 42
0.00000001
 43
0.00000001
 40
0.0
 40
0.0
 40
0.0
 40
0.0
 40
0.07332003413157
 40
0.1354551095102154
 40
0.1889258581117133
 40
0.2360313172665522
 40
0.2786919245027877
 40
0.3183588510877723
 40
0.3560741392200536
 40
0.3925346283275369
 40
0.5014359649782985
 40
0.606587996878892
 40
0.6666841476425759
 40
0.7252759557479188
 40
0.7797569595325552
 40
0.827404160990702
 40
0.8654259015601596
 40
0.8911675667322907
 40
0.9054670246108493
 40
0.9124494430420889
 40
0.9176047899074279
 40
0.9271236409434652
 40
0.940948554456011
 40
0.9642468162501442
 40
1.0
 40
1.0
 40
1.0
 40
1.0
 10
91.62671612333443
 20
58.39715102269798
 30
0.0
 10
91.60109677094684
 20
58.43521450568427
 30
0.0
 10
91.58303114163681
 20
58.46964579805254
 30
0.0
 10
91.57116807319336
 20
58.50093321619002
 30
0.0
 10
91.56415738295456
 20
58.52956507648398
 30
0.0
 10
91.56064888825843
 20
58.5560296953217
 30
0.0
 10
91.55929240644302
 20
58.58081538909041
 30
0.0
 10
91.55873810496338
 20
58.60441036704811
 30
0.0
 10
91.55793180156994
 20
58.6272123749763
 30
0.0
 10
91.55196984131365
 20
58.69509940450833
 30
0.0
 10
91.53900498216088
 20
58.75961162191925
 30
0.0
 10
91.52795519197736
 20
58.79555863940079
 30
0.0
 10
91.51524857588343
 20
58.82995207617302
 30
0.0
 10
91.5021621902352
 20
58.86143364206004
 30
0.0
 10
91.48997309138875
 20
58.88864504688598
 30
0.0
 10
91.47995833570016
 20
58.91022800047495
 30
0.0
 10
91.47333312029461
 20
58.92491113582289
 30
0.0
 10
91.47002885164409
 20
58.93322703909188
 30
0.0
 10
91.46876591142784
 20
58.93741000069276
 30
0.0
 10
91.4679639682314
 20
58.94053485351428
 30
0.0
 10
91.46528683889503
 20
58.94585607302446
 30
0.0
 10
91.46090709843996
 20
58.95331689744891
 30
0.0
 10
91.45336411569302
 20
58.96579359639872
 30
0.0
 10
91.44172596016237
 20
58.98490205449492
 30
0.0
 10
91.44559981372731
 20
58.97853262325179
 30
0.0
 10
91.44172596016237
 20
58.98490205449492
 30
0.0
  0
SPLINE
  5
194
330
1F
100
AcDbEntity
  8
0
  6
Continuous
 62
     7
100
AcDbSpline
210
0.0
220
0.0
230
1.0
 70
     8
 71
     3
 72
    25
 73
    21
 74
     0
 42
0.00000001
 43
0.00000001
 40
0.0
 40
0.0
 40
0.0
 40
0.0
 40
0.1345917250083252
 40
0.2554623102633886
 40
0.3633855254036732
 40
0.4590567476315938
 40
0.5430862921949807
 40
0.6159927661906722
 40
0.6893838188888857
 40
0.7479080243342664
 40
0.7919338359958183
 40
0.8224079384723529
 40
0.8422665881013806
 40
0.8607016193984215
 40
0.8738339719573278
 40
0.8839614946804107
 40
0.8993102665011253
 40
0.9222173539620677
 40
0.9550071445018984
 40
1.0
 40
1.0
 40
1.0
 40
1.0
 10
90.25014089178231
 20
56.56543087089297
 30
0.0
 10
90.2041308463834
 20
56.51635096273444
 30
0.0
 10
90.16491330481566
 20
56.47039432496697
 30
0.0
 10
90.13188808110205
 20
56.42774131653534
 30
0.0
 10
90.10445576148945
 20
56.38857229638437
 30
0.0
 10
90.08201693222469
 20
56.35306762345881
 30
0.0
 10
90.06397217955464
 20
56.32140765670349
 30
0.0
 10
90.04727468289113
 20
56.28874465413607
 30
0.0
 10
90.03500571375402
 20
56.26218940559087
 30
0.0
 10
90.02612957239444
 20
56.24205326402934
 30
0.0
 10
90.01972868070273
 20
56.22823139790138
 30
0.0
 10
90.01523720680407
 20
56.21937964867111
 30
0.0
 10
90.01063477246043
 20
56.21139688936451
 30
0.0
 10
90.00762774416606
 20
56.20556215176588
 30
0.0
 10
90.00587602912961
 20
56.20081279925992
 30
0.0
 10
90.00356720005573
 20
56.1934965937055
 30
0.0
 10
90.00034963314451
 20
56.18250819740172
 30
0.0
 10
89.99587170459603
 20
56.16674227264781
 30
0.0
 10
89.98978179061038
 20
56.14509348174291
 30
0.0
 10
89.9918087815196
 20
56.15231070788922
 30
0.0
 10
89.9897817906104
 20
56.14509348174293
 30
0.0
  0
SPLINE
  5
195
330
1F
100
AcDbEntity
  8
0
  6
Continuous
 62
     7
100
AcDbSpline
210
0.0
220
0.0
230
1.0
 70
     8
 71
     3
 72
    30
 73
    26
 74
     0
 42
0.00000001
 43
0.00000001
 40
0.0
 40
0.0
 40
0.0
 40
0.0
 40
0.0734807486956396
 40
0.1356818704640245
 40
0.1891551091953697
 40
0.2362285158521024
 40
0.2788449640840019
 40
0.3184678254283287
 40
0.3561417493204925
 40
0.3925620785805764
 40
0.5013449002600906
 40
0.6064090262252363
 40
0.6664834137968556
 40
0.7250748044580528
 40
0.7795713873729737
 40
0.827242400089783
 40
0.8652870760483784
 40
0.8910415680659143
 40
0.905342824558308
 40
0.9123221451963714
 40
0.9174742455162698
 40
0.9270020076331064
 40
0.9408483951789811
 40
0.964185766783633
 40
0.9999999999999999
 40
0.9999999999999999
 40
0.9999999999999999
 40
0.9999999999999999
 10
90.69469319414284
 20
58.25652208502618
 30
0.0
 10
90.64974362562668
 20
58.26505027637464
 30
0.0
 10
90.61271610758743
 20
58.27640151088247
 30
0.0
 10
90.58230683053857
 20
58.28995786590588
 30
0.0
 10
90.55721274526556
 20
58.30510141880104
 30
0.0
 10
90.53613080255383
 20
58.32121424692421
 30
0.0
 10
90.5177579531888
 20
58.33767842763159
 30
0.0
 10
90.5007914748016
 20
58.3538762136446
 30
0.0
 10
90.48420263849115
 20
58.36933686567956
 30
0.0
 10
90.43228151669538
 20
58.41283134168658
 30
0.0
 10
90.3777517404031
 20
58.44896703429795
 30
0.0
 10
90.34464727631979
 20
58.46637879573903
 30
0.0
 10
90.31145630710475
 20
58.4815185440683
 30
0.0
 10
90.28004076634846
 20
58.49434026277037
 30
0.0
 10
90.2522625876414
 20
58.50479793532985
 30
0.0
 10
90.22998370457401
 20
58.51284554523134
 30
0.0
 10
90.2149609717543
 20
58.5184541709993
 30
0.0
 10
90.20677128555059
 20
58.5219495431744
 30
0.0
 10
90.20293557735947
 20
58.52399187215537
 30
0.0
 10
90.20017063448442
 20
58.52561835883667
 30
0.0
 10
90.19452964902966
 20
58.5274544675048
 30
0.0
 10
90.1861753675761
 20
58.52958309111046
 30
0.0
 10
90.17204911040015
 20
58.53298702179494
 30
0.0
 10
90.15035338367151
 20
58.53813911625877
 30
0.0
 10
90.15758129742954
 20
58.53641780343294
 30
0.0
 10
90.15035338367151
 20
58.53813911625877
 30
0.0
  0
SPLINE
  5
196
330
1F
100
AcDbEntity
  8
0
  6
Continuous
 62
     7
100
AcDbSpline
210
0.0
220
0.0
230
1.0
 70
     8
 71
     3
 72
    30
 73
    26
 74
     0
 42
0.00000001
 43
0.00000001
 40
0.0
 40
0.0
 40
0.0
 40
0.0
 40
0.0733753130745757
 40
0.1355193174689449
 40
0.1889683624014511
 40
0.2360367426258141
 40
0.2786571007866829
 40
0.3182889928880445
 40
0.3559806837417286
 40
0.3924278147269677
 40
0.5013325871390961
 40
0.6065520747154945
 40
0.6666901900019336
 40
0.7253030738994611
 40
0.7797849495996791
 40
0.8274155295116955
 40
0.8654070141840532
 40
0.8911115418429411
 40
0.905382424878716
 40
0.9123468273434777
 40
0.9174958784977248
 40
0.9270311034291429
 40
0.9408781338641855
 40
0.9642072410389726
 40
1.0
 40
1.0
 40
1.0
 40
1.0
 10
95.387774424068
 20
58.13644640914782
 30
0.0
 10
95.37987149252761
 20
58.18175465949259
 30
0.0
 10
95.37740790982667
 20
58.22062911171291
 30
0.0
 10
95.37934287693373
 20
58.25407554205309
 30
0.0
 10
95.38463603748056
 20
58.28309972675746
 30
0.0
 10
95.39224703509889
 20
58.30870744207031
 30
0.0
 10
95.40113551342047
 20
58.33190446423595
 30
0.0
 10
95.41026152987939
 20
58.35369620752399
 30
0.0
 10
95.41883004707728
 20
58.37487385474122
 30
0.0
 10
95.44110424522475
 20
58.43940006170499
 30
0.0
 10
95.45563823594489
 20
58.5037312481693
 30
0.0
 10
95.46026389786148
 20
58.54114148465514
 30
0.0
 10
95.46275522402755
 20
58.57779601439697
 30
0.0
 10
95.4637166685472
 20
58.61193222057391
 30
0.0
 10
95.4637526855246
 20
58.6417874863651
 30
0.0
 10
95.46346772906385
 20
58.66559919494964
 30
0.0
 10
95.46344528803616
 20
58.68171101472515
 30
0.0
 10
95.46383866537249
 20
58.69064748213738
 30
0.0
 10
95.46439803232434
 20
58.69497684756313
 30
0.0
 10
95.46494338647597
 20
58.69815791180827
 30
0.0
 10
95.46468301443079
 20
58.70412900476407
 30
0.0
 10
95.4637511706909
 20
58.71275828402316
 30
0.0
 10
95.46199527135173
 20
58.7272753780498
 30
0.0
 10
95.45922893438637
 20
58.74953940764692
 30
0.0
 10
95.46014598551706
 20
58.7421203491014
 30
0.0
 10
95.45922893438637
 20
58.74953940764692
 30
0.0
  0
SPLINE
  5
197
330
1F
100
AcDbEntity
  8
0
  6
Continuous
 62
     7
100
AcDbSpline
210
0.0
220
0.0
230
1.0
 70
     8
 71
     3
 72
    29
 73
    25
 74
     0
 42
0.00000001
 43
0.00000001
 40
0.0
 40
0.0
 40
0.0
 40
0.0
 40
0.0665154205204345
 40
0.123715126473317
 40
0.1734528882370599
 40
0.2174631876624467
 40
0.2572655649259161
 40
0.3276082038164833
 40
0.3923857131566565
 40
0.5010565771732353
 40
0.606156495155682
 40
0.6662863915900982
 40
0.7249251910595771
 40
0.7794541195551191
 40
0.8271395291629527
 40
0.8651801569120685
 40
0.8909151852708843
 40
0.9051961805695385
 40
0.9121593489897775
 40
0.9173052463822716
 40
0.9268558185886646
 40
0.940734382747983
 40
0.9641197225580457
 40
1.0
 40
1.0
 40
1.0
 40
1.0
 10
93.90006707739022
 20
58.15698477552086
 30
0.0
 10
93.90897960182126
 20
58.19767285762995
 30
0.0
 10
93.91324023456008
 20
58.23323771132183
 30
0.0
 10
93.91362451592785
 20
58.26438173428823
 30
0.0
 10
93.91090810896094
 20
58.29180732422093
 30
0.0
 10
93.90586667669568
 20
58.31621687881171
 30
0.0
 10
93.89217898338676
 20
58.35808570244125
 30
0.0
 10
93.87813735930098
 20
58.39614235487301
 30
0.0
 10
93.85833764156511
 20
58.46124928805791
 30
0.0
 10
93.84626654989388
 20
58.52594769194656
 30
0.0
 10
93.84307112800172
 20
58.56346593636391
 30
0.0
 10
93.84198010705902
 20
58.60017005693579
 30
0.0
 10
93.84232207097362
 20
58.6343150253584
 30
0.0
 10
93.84342560365334
 20
58.66415581332792
 30
0.0
 10
93.84461928900603
 20
58.68794739254057
 30
0.0
 10
93.84525671814995
 20
58.70405037026605
 30
0.0
 10
93.8452046672472
 20
58.71299315240226
 30
0.0
 10
93.84481085715616
 20
58.7173357536501
 30
0.0
 10
93.84438721346228
 20
58.72053020837671
 30
0.0
 10
93.84487534627385
 20
58.7264909397469
 30
0.0
 10
93.84613605093928
 20
58.73508994108862
 30
0.0
 10
93.84844510003919
 20
58.74955093882248
 30
0.0
 10
93.85205973774637
 20
58.77172694899092
 30
0.0
 10
93.85086007137905
 20
58.76433703856181
 30
0.0
 10
93.85205973774637
 20
58.77172694899092
 30
0.0
  0
SPLINE
  5
198
330
1F
100
AcDbEntity
  8
0
  6
Continuous
 62
     7
100
AcDbSpline
210
0.0
220
0.0
230
1.0
 70
     8
 71
     3
 72
    30
 73
    26
 74
     0
 42
0.00000001
 43
0.00000001
 40
0.0
 40
0.0
 40
0.0
 40
0.0
 40
0.0733413285060407
 40
0.1354643135593549
 40
0.1889052773943408
 40
0.2359775982821916
 40
0.2786115474232116
 40
0.3182630561477731
 40
0.355976050704062
 40
0.3924427432959471
 40
0.5013930460417
 40
0.6066308058966873
 40
0.6667673233326952
 40
0.7253729191692192
 40
0.7798445455555272
 40
0.8274643305213834
 40
0.8654466873118122
 40
0.8911457254505794
 40
0.9054146902512185
 40
0.9123792308012864
 40
0.9175286667528749
 40
0.9270608106406892
 40
0.9409023096957814
 40
0.9642218765587414
 40
1.0
 40
1.0
 40
1.0
 40
1.0
 10
94.76085277032044
 20
58.40872883872545
 30
0.0
 10
94.79927793777277
 20
58.43391464830808
 30
0.0
 10
94.82929645613399
 20
58.4586805351372
 30
0.0
 10
94.85235231524763
 20
58.48295314764572
 30
0.0
 10
94.86988959544891
 20
58.50665913426653
 30
0.0
 10
94.88335237707304
 20
58.52972514343256
 30
0.0
 10
94.89418474045523
 20
58.55207782357673
 30
0.0
 10
94.90383022206873
 20
58.57364387804908
 30
0.0
 10
94.91340902391863
 20
58.59438265931966
 30
0.0
 10
94.94521445722694
 20
58.65476916160402
 30
0.0
 10
94.98216780774992
 20
58.70936328286134
 30
0.0
 10
95.00627232441357
 20
58.73831371432626
 30
0.0
 10
95.03128497399986
 20
58.76518723634443
 30
0.0
 10
95.05550793190983
 20
58.78922109615641
 30
0.0
 10
95.07724337354449
 20
58.8096525410028
 30
0.0
 10
95.09479347430484
 20
58.82571881812415
 30
0.0
 10
95.10655217517927
 20
58.83671446996557
 30
0.0
 10
95.11279684117993
 20
58.84310998267512
 30
0.0
 10
95.11557007803145
 20
58.84647799660196
 30
0.0
 10
95.11751585582263
 20
58.84905087078142
 30
0.0
 10
95.12204571494603
 20
58.85294144048968
 30
0.0
 10
95.12897191268358
 20
58.85815783543716
 30
0.0
 10
95.140752627386
 20
58.86679581594749
 30
0.0
 10
95.15887027360237
 20
58.87998975926292
 30
0.0
 10
95.15283618541213
 20
58.87558965728641
 30
0.0
 10
95.15887027360237
 20
58.87998975926292
 30
0.0
  0
SPLINE
  5
199
330
1F
100
AcDbEntity
  8
0
  6
Continuous
 62
     7
100
AcDbSpline
210
0.0
220
0.0
230
1.0
 70
     8
 71
     3
 72
    30
 73
    26
 74
     0
 42
0.00000001
 43
0.00000001
 40
0.0
 40
0.0
 40
0.0
 40
0.0
 40
0.0733384540449927
 40
0.1354392093651599
 40
0.1888585456252914
 40
0.235924544449908
 40
0.2785737825707677
 40
0.3182586031625679
 40
0.3560115933767392
 40
0.3925137670857108
 40
0.5015316622774875
 40
0.6067728336817735
 40
0.6668914625178916
 40
0.7254738750454541
 40
0.779922234551349
 40
0.8275215012522417
 40
0.8654875076512061
 40
0.8911751445166065
 40
0.9054378080483715
 40
0.9124001651977068
 40
0.9175486994900174
 40
0.9270772907439037
 40
0.9409152713625932
 40
0.9642296314784566
 40
1.0
 40
1.0
 40
1.0
 40
1.0
 10
94.53705595564034
 20
58.41181849148649
 30
0.0
 10
94.4996125578986
 20
58.43805228208871
 30
0.0
 10
94.47055586007379
 20
58.46363419447697
 30
0.0
 10
94.44843926344842
 20
58.48853079142502
 30
0.0
 10
94.43181660923071
 20
58.51270863570657
 30
0.0
 10
94.4192417386289
 20
58.53613429009538
 30
0.0
 10
94.40926849285118
 20
58.55877431736519
 30
0.0
 10
94.40045126099082
 20
58.5805953203211
 30
0.0
 10
94.39166899960053
 20
58.6015876163691
 30
0.0
 10
94.36218489860269
 20
58.66282023340074
 30
0.0
 10
94.32733448426187
 20
58.71840549731605
 30
0.0
 10
94.3043475930174
 20
58.74800588896802
 30
0.0
 10
94.28037392981763
 20
58.77555544878438
 30
0.0
 10
94.25708127702723
 20
58.80024498554955
 30
0.0
 10
94.23613741701087
 20
58.82126530804798
 30
0.0
 10
94.21921013213323
 20
58.83780722506414
 30
0.0
 10
94.20787765285287
 20
58.84912135763699
 30
0.0
 10
94.20188059349141
 20
58.85568568163143
 30
0.0
 10
94.1992374651744
 20
58.85912837595303
 30
0.0
 10
94.19739092666394
 20
58.86175357725693
 30
0.0
 10
94.1930119078557
 20
58.8657671601102
 30
0.0
 10
94.18628844347546
 20
58.87117200274253
 30
0.0
 10
94.17484365478222
 20
58.880130600312
 30
0.0
 10
94.15723923077037
 20
58.89381763140692
 30
0.0
 10
94.16310213414395
 20
58.88925334282419
 30
0.0
 10
94.15723923077037
 20
58.89381763140692
 30
0.0
  0
SPLINE
  5
19A
330
1F
100
AcDbEntity
  8
0
  6
Continuous
 62
     7
100
AcDbSpline
210
0.0
220
0.0
230
1.0
 70
     8
 71
     3
 72
    26
 73
    22
 74
     0
 42
0.00000001
 43
0.00000001
 40
0.0
 40
0.0
 40
0.0
 40
0.0
 40
0.1344886131628996
 40
0.2552750480218149
 40
0.3631352645023962
 40
0.4587657314722832
 40
0.5427762557971674
 40
0.6156832528987874
 40
0.6890950975660608
 40
0.7476527499190886
 40
0.7917119348050359
 40
0.8222058362777603
 40
0.8420713018296553
 40
0.8556892723121754
 40
0.8647274090914167
 40
0.8736418494408426
 40
0.883776332966704
 40
0.8991438350648305
 40
0.9220854569305603
 40
0.9549294522693884
 40
1.0
 40
1.0
 40
1.0
 40
1.0
 10
90.20787821840432
 20
57.79656716280929
 30
0.0
 10
90.15604725312845
 20
57.8559961339554
 30
0.0
 10
90.11206327909547
 20
57.91150409271344
 30
0.0
 10
90.07521163140807
 20
57.9629004564941
 30
0.0
 10
90.04477825694708
 20
58.00999464270807
 30
0.0
 10
90.02004910259339
 20
58.05259606876605
 30
0.0
 10
90.00031011522782
 20
58.09051415207873
 30
0.0
 10
89.98220496402169
 20
58.1295654993444
 30
0.0
 10
89.969023532997
 20
58.16126906741391
 30
0.0
 10
89.95953204865789
 20
58.1852958669268
 30
0.0
 10
89.95265469142961
 20
58.20180003858525
 30
0.0
 10
89.94778876831256
 20
58.21238286457633
 30
0.0
 10
89.94411552138507
 20
58.21947253310557
 30
0.0
 10
89.94158462271233
 20
58.2241285292961
 30
0.0
 10
89.9394903334867
 20
58.22891750101861
 30
0.0
 10
89.93765500442944
 20
58.23456920814877
 30
0.0
 10
89.93528609431199
 20
58.24326279796645
 30
0.0
 10
89.93202226486484
 20
58.25631239418149
 30
0.0
 10
89.92750217781852
 20
58.27503212050365
 30
0.0
 10
89.92136449490351
 20
58.30073610064277
 30
0.0
 10
89.92340717249118
 20
58.29216730068308
 30
0.0
 10
89.92136449490351
 20
58.30073610064277
 30
0.0
  0
SPLINE
  5
19B
330
1F
100
AcDbEntity
  8
0
  6
Continuous
 62
     7
100
AcDbSpline
210
0.0
220
0.0
230
1.0
 70
     8
 71
     3
 72
    30
 73
    26
 74
     0
 42
0.00000001
 43
0.00000001
 40
0.0
 40
0.0
 40
0.0
 40
0.0
 40
0.0733168652405242
 40
0.1354520927017978
 40
0.1889228760174679
 40
0.2360282968313695
 40
0.2786888366132602
 40
0.3183556883894301
 40
0.3560708725692239
 40
0.3925312444859411
 40
0.5014323265967302
 40
0.6065842078324205
 40
0.666680442453951
 40
0.7252725835609508
 40
0.7797541151985922
 40
0.8274019795110786
 40
0.8654244551307742
 40
0.8911668225623791
 40
0.9054667177736062
 40
0.9124493412074616
 40
0.917604728147633
 40
0.9271234979133514
 40
0.9409483723858325
 40
0.9642466653455188
 40
1.0
 40
1.0
 40
1.0
 40
1.0
 10
90.96988187860634
 20
56.13383182919279
 30
0.0
 10
90.99549902910985
 20
56.09576922399835
 30
0.0
 10
91.01356605107249
 20
56.0613385306124
 30
0.0
 10
91.02543022656985
 20
56.03005148923044
 30
0.0
 10
91.03244174659834
 20
56.00141984004796
 30
0.0
 10
91.03595080215436
 20
55.97495532326041
 30
0.0
 10
91.03730758423431
 20
55.95016967906329
 30
0.0
 10
91.03786193528937
 20
55.92657475428477
 30
0.0
 10
91.03866818111959
 20
55.90377280507772
 30
0.0
 10
91.04462987183483
 20
55.83588587394369
 30
0.0
 10
91.05759439768956
 20
55.77137364860457
 30
0.0
 10
91.06864406803815
 20
55.73542651763071
 30
0.0
 10
91.08135067811772
 20
55.70103283486866
 30
0.0
 10
91.09443714890185
 20
55.66955092623205
 30
0.0
 10
91.10662640136411
 20
55.64233911763454
 30
0.0
 10
91.11664135647808
 20
55.6207557349898
 30
0.0
 10
91.12326677965822
 20
55.60607220149478
 30
0.0
 10
91.1265711775836
 20
55.59775604978066
 30
0.0
 10
91.12783417607153
 20
55.59357296924312
 30
0.0
 10
91.12863612375386
 20
55.59044808984029
 30
0.0
 10
91.13131322072341
 20
55.58512690728995
 30
0.0
 10
91.1356929443474
 20
55.57766609576655
 30
0.0
 10
91.143235931715
 20
55.56518936739913
 30
0.0
 10
91.15487412845039
 20
55.54608080934291
 30
0.0
 10
91.1510002608971
 20
55.55245027375003
 30
0.0
 10
91.15487412845039
 20
55.54608080934291
 30
0.0
  0
SPLINE
  5
19C
330
1F
100
AcDbEntity
  8
0
  6
Continuous
 62
     7
100
AcDbSpline
210
0.0
220
0.0
230
1.0
 70
     8
 71
     3
 72
    30
 73
    26
 74
     0
 42
0.00000001
 43
0.00000001
 40
0.0
 40
0.0
 40
0.0
 40
0.0
 40
0.0733429185298472
 40
0.1354656187940292
 40
0.1889064360960656
 40
0.2359788045448375
 40
0.2786129885156085
 40
0.3182648810833542
 40
0.3559783990311851
 40
0.3924456441353469
 40
0.5013973803604694
 40
0.6066363073122124
 40
0.6667731018099089
 40
0.7253784004979036
 40
0.7798492577693826
 40
0.8274679153862333
 40
0.8654489063298729
 40
0.8911465567642614
 40
0.9054146418429447
 40
0.9123787686595713
 40
0.9175281491770528
 40
0.9270605521397187
 40
0.94090224983687
 40
0.9642219322632639
 40
1.0
 40
1.0
 40
1.0
 40
1.0
 10
94.49231223892357
 20
56.06812634134393
 30
0.0
 10
94.45388725211976
 20
56.04293920275243
 30
0.0
 10
94.42387029957688
 20
56.01817225551128
 30
0.0
 10
94.40081588009335
 20
55.99389882284304
 30
0.0
 10
94.38327982375691
 20
55.97019222797025
 30
0.0
 10
94.36981796065528
 20
55.94712579411548
 30
0.0
 10
94.35898612087624
 20
55.92477284450129
 30
0.0
 10
94.34934068327885
 20
55.90320664695093
 30
0.0
 10
94.33976170965327
 20
55.88246779301801
 30
0.0
 10
94.30795562858293
 20
55.82208131975137
 30
0.0
 10
94.27100159211544
 20
55.76748750520086
 30
0.0
 10
94.2468969288309
 20
55.73853741656115
 30
0.0
 10
94.22188448402082
 20
55.7116644151622
 30
0.0
 10
94.19766200367873
 20
55.6876311994454
 30
0.0
 10
94.17592723379812
 20
55.6672004678521
 30
0.0
 10
94.1583779203725
 20
55.65113491882372
 30
0.0
 10
94.14661999476147
 20
55.64013992539994
 30
0.0
 10
94.14037580844969
 20
55.63374482834485
 30
0.0
 10
94.13760279067503
 20
55.63037702124522
 30
0.0
 10
94.13565703986383
 20
55.62780420704543
 30
0.0
 10
94.13112708106766
 20
55.62391358779435
 30
0.0
 10
94.1242008415193
 20
55.61869717282816
 30
0.0
 10
94.1124201712165
 20
55.61005923440597
 30
0.0
 10
94.09430271261037
 20
55.59686543959892
 30
0.0
 10
94.10033673795846
 20
55.60126549262381
 30
0.0
 10
94.09430271261037
 20
55.59686543959892
 30
0.0
  0
SPLINE
  5
19D
330
1F
100
AcDbEntity
  8
0
  6
Continuous
 62
     7
100
AcDbSpline
210
0.0
220
0.0
230
1.0
 70
     8
 71
     3
 72
    30
 73
    26
 74
     0
 42
0.00000001
 43
0.00000001
 40
0.0
 40
0.0
 40
0.0
 40
0.0
 40
0.0733215141200844
 40
0.135449441151068
 40
0.1889088229757854
 40
0.236002684495459
 40
0.2786544154463976
 40
0.318315814853998
 40
0.3560264207622191
 40
0.3924817495979437
 40
0.5013678576878152
 40
0.6065010898417499
 40
0.6665909376710458
 40
0.7251858980873164
 40
0.7796782012576076
 40
0.827342839872067
 40
0.8653857524730768
 40
0.8911484667355146
 40
0.9054611750136707
 40
0.9124500024257607
 40
0.9176065151805477
 40
0.927121816199278
 40
0.9409447264264572
 40
0.9642430975949396
 40
1.0
 40
1.0
 40
1.0
 40
1.0
 10
90.7619749171653
 20
56.216316330002
 30
0.0
 10
90.71721334612435
 20
56.20630567792154
 30
0.0
 10
90.68043900851407
 20
56.19373040505759
 30
0.0
 10
90.65033537599005
 20
56.17916477568789
 30
0.0
 10
90.62558683439212
 20
56.16318305409027
 30
0.0
 10
90.6048777695601
 20
56.14635950454247
 30
0.0
 10
90.5868925673338
 20
56.1292683913223
 30
0.0
 10
90.57031588484894
 20
56.1124838437322
 30
0.0
 10
90.55410396221507
 20
56.09644487293998
 30
0.0
 10
90.50325199601296
 20
56.05112636796861
 30
0.0
 10
90.44961780737869
 20
56.01306390602148
 30
0.0
 10
90.41694165277262
 20
55.99448214247801
 30
0.0
 10
90.38411670893665
 20
55.97816938632138
 30
0.0
 10
90.3530053695767
 20
55.96423717970712
 30
0.0
 10
90.32547002839874
 20
55.95279706479081
 30
0.0
 10
90.30337307910872
 20
55.94396058372797
 30
0.0
 10
90.28847308441966
 20
55.93781866289085
 30
0.0
 10
90.2803598927432
 20
55.93403162751005
 30
0.0
 10
90.27656994705195
 20
55.9318520964043
 30
0.0
 10
90.2738441718202
 20
55.9301271366084
 30
0.0
 10
90.26825001453982
 20
55.92809320892513
 30
0.0
 10
90.2599487866253
 20
55.9256719918683
 30
0.0
 10
90.24590535602715
 20
55.92177303108789
 30
0.0
 10
90.22433277625838
 20
55.91586015671892
 30
0.0
 10
90.23151955988716
 20
55.91783486626349
 30
0.0
 10
90.22433277625838
 20
55.91586015671892
 30
0.0
  0
SPLINE
  5
19E
330
1F
100
AcDbEntity
  8
0
  6
Continuous
 62
     7
100
AcDbSpline
210
0.0
220
0.0
230
1.0
 70
     8
 71
     3
 72
    29
 73
    25
 74
     0
 42
0.00000001
 43
0.00000001
 40
0.0
 40
0.0
 40
0.0
 40
0.0
 40
0.0665172182795225
 40
0.1236942119261418
 40
0.1734049196854351
 40
0.217399505222704
 40
0.2572070176776721
 40
0.3276170052981166
 40
0.3924787736395658
 40
0.501235083759381
 40
0.6063376911279974
 40
0.6664439449840593
 40
0.7250526338533089
 40
0.7795516357692847
 40
0.8272108239150173
 40
0.8652306021090486
 40
0.8909509992407829
 40
0.9052237943640368
 40
0.9121840369463461
 40
0.9173286925627537
 40
0.9268748494172937
 40
0.9407492765409248
 40
0.9641286189365059
 40
0.9999999999999999
 40
0.9999999999999999
 40
0.9999999999999999
 40
0.9999999999999999
 10
93.73877392839577
 20
57.99983408311729
 30
0.0
 10
93.69809427227105
 20
57.99220486718034
 30
0.0
 10
93.66265387307293
 20
57.9890887366813
 30
0.0
 10
93.63172908567083
 20
57.98972815676802
 30
0.0
 10
93.60459716026264
 20
57.99336559258833
 30
0.0
 10
93.58053534704621
 20
57.99924350929007
 30
0.0
 10
93.53942872608309
 20
58.01439790019794
 30
0.0
 10
93.50211714717355
 20
58.02978230154754
 30
0.0
 10
93.4381458428226
 20
58.0518519025913
 30
0.0
 10
93.3743256882821
 20
58.0661298224928
 30
0.0
 10
93.33719167582025
 20
58.07058066353036
 30
0.0
 10
93.30079670206429
 20
58.07288691048028
 30
0.0
 10
93.26689486343149
 20
58.07366681436553
 30
0.0
 10
93.23724025633908
 20
58.07353862620909
 30
0.0
 10
93.21358697720439
 20
58.07312059703389
 30
0.0
 10
93.19758341154994
 20
58.07300928055209
 30
0.0
 10
93.18870925267308
 20
58.07335610332586
 30
0.0
 10
93.18441210368587
 20
58.07389540252953
 30
0.0
 10
93.1812553876225
 20
58.07442690900137
 30
0.0
 10
93.17532283264846
 20
58.07413187520202
 30
0.0
 10
93.16674622894826
 20
58.07314619926527
 30
0.0
 10
93.15231676758144
 20
58.07129847555044
 30
0.0
 10
93.13018678795439
 20
58.06839082543892
 30
0.0
 10
93.13756113855953
 20
58.06935486412329
 30
0.0
 10
93.1301867879544
 20
58.06839082543893
 30
0.0
  0
SPLINE
  5
19F
330
1F
100
AcDbEntity
  8
0
  6
Continuous
 62
     7
100
AcDbSpline
210
0.0
220
0.0
230
1.0
 70
     8
 71
     3
 72
    30
 73
    26
 74
     0
 42
0.00000001
 43
0.00000001
 40
0.0
 40
0.0
 40
0.0
 40
0.0
 40
0.0735069835862993
 40
0.1357193735679135
 40
0.1891891234755649
 40
0.2362486023245934
 40
0.2788454151116551
 40
0.3184465417096904
 40
0.356097657574766
 40
0.3924958937577573
 40
0.501223289298916
 40
0.606249900493949
 40
0.666317626744899
 40
0.7249179165124726
 40
0.7794352871446766
 40
0.8271348013083011
 40
0.8652112585021888
 40
0.8909948216795569
 40
0.9053132346288629
 40
0.912299999965734
 40
0.9174530809065822
 40
0.9269787959944017
 40
0.9408267128626671
 40
0.9641709674746735
 40
1.0
 40
1.0
 40
1.0
 40
1.0
 10
92.41234706472542
 20
57.62965165041699
 30
0.0
 10
92.45085468611074
 20
57.604904099163
 30
0.0
 10
92.48554846001714
 20
57.58766474261316
 30
0.0
 10
92.51694899250238
 20
57.57658897031114
 30
0.0
 10
92.54557810595084
 20
57.57033217180057
 30
0.0
 10
92.5719576227469
 20
57.56754973662513
 30
0.0
 10
92.59660936527492
 20
57.5668970543285
 30
0.0
 10
92.6200550616613
 20
57.56702979830733
 30
0.0
 10
92.64272052566491
 20
57.5668924829813
 30
0.0
 10
92.71031014323704
 20
57.56291353457458
 30
0.0
 10
92.77476023114032
 20
57.55179512734303
 30
0.0
 10
92.81079016218554
 20
57.54174513008286
 30
0.0
 10
92.84533155527166
 20
57.52997552791358
 30
0.0
 10
92.87699627303768
 20
57.51773293407403
 30
0.0
 10
92.90439617812258
 20
57.50626396180304
 30
0.0
 10
92.92614313316537
 20
57.49681522433945
 30
0.0
 10
92.94093641802328
 20
57.49057412892276
 30
0.0
 10
92.94930257672299
 20
57.48749051194173
 30
0.0
 10
92.95349902148102
 20
57.48634192607584
 30
0.0
 10
92.95662749833473
 20
57.4856279125643
 30
0.0
 10
92.96198980367532
 20
57.48309168054858
 30
0.0
 10
92.96952784938192
 20
57.47890357059804
 30
0.0
 10
92.98214194722956
 20
57.47167816826681
 30
0.0
 10
93.00146539301038
 20
57.46052450655892
 30
0.0
 10
92.99502444769401
 20
57.46423677037812
 30
0.0
 10
93.00146539301038
 20
57.46052450655892
 30
0.0
  0
SPLINE
  5
1A0
330
1F
100
AcDbEntity
  8
0
  6
Continuous
 62
     7
100
AcDbSpline
210
0.0
220
0.0
230
1.0
 70
     8
 71
     3
 72
    30
 73
    26
 74
     0
 42
0.00000001
 43
0.00000001
 40
0.0
 40
0.0
 40
0.0
 40
0.0
 40
0.0733198317101588
 40
0.1354485299983703
 40
0.1889085140256039
 40
0.2360025560080486
 40
0.2786539722930984
 40
0.3183146298248024
 40
0.3560241523077479
 40
0.3924783279520053
 40
0.5013613957773155
 40
0.6064920947351812
 40
0.6665812113558207
 40
0.7251765240645746
 40
0.7796700807486425
 40
0.8273366701223145
 40
0.8653820155363212
 40
0.8911472499688186
 40
0.9054615678804181
 40
0.912451156432843
 40
0.9176077651599245
 40
0.9271225505215354
 40
0.9409450415059158
 40
0.9642431161819845
 40
1.0
 40
1.0
 40
1.0
 40
1.0
 10
91.83461116384652
 20
58.31466650296703
 30
0.0
 10
91.87937284709203
 20
58.32467610847417
 30
0.0
 10
91.91614894982727
 20
58.33725015535515
 30
0.0
 10
91.94625437728283
 20
58.35181450266694
 30
0.0
 10
91.97100455145122
 20
58.36779500946655
 30
0.0
 10
91.99171489432499
 20
58.38461753481094
 30
0.0
 10
92.00970082789661
 20
58.40170793775711
 30
0.0
 10
92.02627750837308
 20
58.41849220958775
 30
0.0
 10
92.04248908397412
 20
58.43453116539422
 30
0.0
 10
92.09333993458438
 20
58.47985014731608
 30
0.0
 10
92.14697311738378
 20
58.51791360134907
 30
0.0
 10
92.17964922882598
 20
58.53649606319026
 30
0.0
 10
92.21247486543419
 20
58.55280959695205
 30
0.0
 10
92.24358745949662
 20
58.56674261801733
 30
0.0
 10
92.27112444330147
 20
58.57818354176899
 30
0.0
 10
92.29322324913696
 20
58.58702078358991
 30
0.0
 10
92.30812503590188
 20
58.59316335452248
 30
0.0
 10
92.3162393424716
 20
58.59695081294284
 30
0.0
 10
92.32002980811468
 20
58.59913057353327
 30
0.0
 10
92.3227556696791
 20
58.60085563195756
 30
0.0
 10
92.32834962008573
 20
58.6028895391338
 30
0.0
 10
92.3366507629147
 20
58.60531073981432
 30
0.0
 10
92.35069430169736
 20
58.60920972649141
 30
0.0
 10
92.37226731235437
 20
58.61512270711891
 30
0.0
 10
92.36508038499433
 20
58.61314796334378
 30
0.0
 10
92.37226731235437
 20
58.61512270711891
 30
0.0
  0
SPLINE
  5
1A1
330
1F
100
AcDbEntity
  8
0
  6
Continuous
 62
     7
100
AcDbSpline
210
0.0
220
0.0
230
1.0
 70
     8
 71
     3
 72
    29
 73
    25
 74
     0
 42
0.00000001
 43
0.00000001
 40
0.0
 40
0.0
 40
0.0
 40
0.0
 40
0.0665917100289497
 40
0.1238499774898247
 40
0.1736245376168811
 40
0.2176489551355148
 40
0.2574445779891522
 40
0.3277267817244403
 40
0.3924060006354283
 40
0.5008955228786478
 40
0.6058282164922796
 40
0.6659055388724066
 40
0.7245457293378597
 40
0.7791188017796987
 40
0.8268771882744629
 40
0.8650042542140208
 40
0.8908197884541288
 40
0.9051505996558525
 40
0.9121379179301093
 40
0.9172893019091918
 40
0.9268301410666466
 40
0.9407054472799319
 40
0.964097353474588
 40
1.0
 40
1.0
 40
1.0
 40
1.0
 10
92.33748363088753
 20
56.73131666694462
 30
0.0
 10
92.34604177072515
 20
56.69059037993033
 30
0.0
 10
92.35673005769853
 20
56.656441017623
 30
0.0
 10
92.3691307387863
 20
56.62791364692832
 30
0.0
 10
92.38282846676564
 20
56.60405333475191
 30
0.0
 10
92.39740789441376
 20
56.58390514799944
 30
0.0
 10
92.42701509351564
 20
56.55146189161856
 30
0.0
 10
92.45540976721134
 20
56.52269445093264
 30
0.0
 10
92.50014481470832
 20
56.47174812791226
 30
0.0
 10
92.53765743552023
 20
56.41796069989963
 30
0.0
 10
92.55593514488211
 20
56.38516545956907
 30
0.0
 10
92.5719582796856
 20
56.35220747157788
 30
0.0
 10
92.58562627765167
 20
56.32096124444719
 30
0.0
 10
92.59683857650124
 20
56.2933012866981
 30
0.0
 10
92.60549461395526
 20
56.27110210685176
 30
0.0
 10
92.61151372151815
 20
56.25613385667997
 30
0.0
 10
92.61523096855294
 20
56.24798585334933
 30
0.0
 10
92.61737517676349
 20
56.24418190877309
 30
0.0
 10
92.61907364094733
 20
56.24144711028273
 30
0.0
 10
92.6210631177105
 20
56.23582636982862
 30
0.0
 10
92.6234223687618
 20
56.22748226805883
 30
0.0
 10
92.62721784806828
 20
56.21336506485214
 30
0.0
 10
92.63297231136238
 20
56.19167857598292
 30
0.0
 10
92.6310502701261
 20
56.19890331513807
 30
0.0
 10
92.63297231136238
 20
56.19167857598292
 30
0.0
  0
SPLINE
  5
1A2
330
1F
100
AcDbEntity
  8
0
  6
Continuous
 62
     7
100
AcDbSpline
210
0.0
220
0.0
230
1.0
 70
     8
 71
     3
 72
    30
 73
    26
 74
     0
 42
0.00000001
 43
0.00000001
 40
0.0
 40
0.0
 40
0.0
 40
0.0
 40
0.0733749114158864
 40
0.1355185799266798
 40
0.1889671556517733
 40
0.2360351034997518
 40
0.2786551731679286
 40
0.3182869327103016
 40
0.3559785631580802
 40
0.392425637871018
 40
0.5013302981991989
 40
0.6065497336905047
 40
0.6666879201848218
 40
0.7253010201002954
 40
0.7797832236896233
 40
0.8274142072337715
 40
0.8654061333834107
 40
0.8911110773731452
 40
0.9053822158570936
 40
0.9123467339161406
 40
0.9174958033442011
 40
0.9270309839770202
 40
0.9408779981908183
 40
0.9642071350552963
 40
1.0
 40
1.0
 40
1.0
 40
1.0
 10
93.86539058517602
 20
56.34040877090556
 30
0.0
 10
93.87329554246455
 20
56.29510113062261
 30
0.0
 10
93.87576167384375
 20
56.25622705188557
 30
0.0
 10
93.87382848956176
 20
56.22278081384092
 30
0.0
 10
93.8685364789845
 20
56.19375669563519
 30
0.0
 10
93.86092613147784
 20
56.16814897641489
 30
0.0
 10
93.85203793640771
 20
56.14495193532652
 30
0.0
 10
93.8429119702387
 20
56.12316021263367
 30
0.0
 10
93.83434343635085
 20
56.10198261080259
 30
0.0
 10
93.81206911806247
 20
56.03745652134477
 30
0.0
 10
93.79753494802681
 20
55.97312541046409
 30
0.0
 10
93.79290919559858
 20
55.93571514109571
 30
0.0
 10
93.79041780838804
 20
55.89906048066064
 30
0.0
 10
93.7894563294134
 20
55.86492407065782
 30
0.0
 10
93.7894203016929
 20
55.83506855258613
 30
0.0
 10
93.78970526824479
 20
55.81125656794453
 30
0.0
 10
93.7897277342452
 20
55.79514448762514
 30
0.0
 10
93.78933437802621
 20
55.7862078592231
 30
0.0
 10
93.78877502509785
 20
55.78187841903196
 30
0.0
 10
93.78822967751269
 20
55.77869734211735
 30
0.0
 10
93.7884900408811
 20
55.77272627671803
 30
0.0
 10
93.78942186962533
 20
55.76409700627312
 30
0.0
 10
93.79117774607998
 20
55.74957989108196
 30
0.0
 10
93.79394405182637
 20
55.72731579119892
 30
0.0
 10
93.79302701088761
 20
55.73473487322124
 30
0.0
 10
93.79394405182637
 20
55.72731579119892
 30
0.0
  0
SPLINE
  5
1A3
330
1F
100
AcDbEntity
  8
0
  6
Continuous
 62
     7
100
AcDbSpline
210
0.0
220
0.0
230
1.0
 70
     8
 71
     3
 72
    30
 73
    26
 74
     0
 42
0.00000001
 43
0.00000001
 40
0.0
 40
0.0
 40
0.0
 40
0.0
 40
0.0734781733661545
 40
0.1356801721658176
 40
0.1891541129652308
 40
0.2362277805604418
 40
0.2788439702483261
 40
0.3184661253642693
 40
0.356138989559209
 40
0.3925581891055572
 40
0.5013380401640829
 40
0.6063996947963265
 40
0.6664733909428172
 40
0.7250651782887612
 40
0.7795630613605179
 40
0.8272360708416087
 40
0.865283221823612
 40
0.8910402671256764
 40
0.9053431519524537
 40
0.9123232424233011
 40
0.9174754424842853
 40
0.9270026922637493
 40
0.9408486681162861
 40
0.9641857587526227
 40
1.0
 40
1.0
 40
1.0
 40
1.0
 10
91.85963021349099
 20
56.23589256073072
 30
0.0
 10
91.90457924464044
 20
56.22736530367624
 30
0.0
 10
91.94160849055923
 20
56.21601523910071
 30
0.0
 10
91.97201952913707
 20
56.20246015095597
 30
0.0
 10
91.99711521790671
 20
56.18731782319387
 30
0.0
 10
92.01819841440096
 20
56.17120603976626
 30
0.0
 10
92.03657197615256
 20
56.154742584625
 30
0.0
 10
92.0535384401029
 20
56.1385450697245
 30
0.0
 10
92.0701269268561
 20
56.12308441902633
 30
0.0
 10
92.12204693939685
 20
56.07958942109828
 30
0.0
 10
92.176575731289
 20
56.04345269541518
 30
0.0
 10
92.20968017198375
 20
56.02604023120934
 30
0.0
 10
92.24287185767834
 20
56.0108997265334
 30
0.0
 10
92.27428867917027
 20
55.99807723432802
 30
0.0
 10
92.30206852725703
 20
55.98761880753383
 30
0.0
 10
92.32434929273614
 20
55.9795704990915
 30
0.0
 10
92.33937383956636
 20
55.97396128351675
 30
0.0
 10
92.3475646541787
 20
55.97046552545856
 30
0.0
 10
92.35140088920042
 20
55.9684229838555
 30
0.0
 10
92.35416592067492
 20
55.96679640065268
 30
0.0
 10
92.3598066979292
 20
55.96496030538057
 30
0.0
 10
92.36816089373161
 20
55.96283169586913
 30
0.0
 10
92.38228726040228
 20
55.95942774427844
 30
0.0
 10
92.40398342259438
 20
55.95427556036692
 30
0.0
 10
92.39675536363407
 20
55.95599690181925
 30
0.0
 10
92.40398342259438
 20
55.95427556036692
 30
0.0
  0
SPLINE
  5
1A4
330
1F
100
AcDbEntity
  8
0
  6
Continuous
 62
     7
100
AcDbSpline
210
0.0
220
0.0
230
1.0
 70
     8
 71
     3
 72
    30
 73
    26
 74
     0
 42
0.00000001
 43
0.00000001
 40
0.0
 40
0.0
 40
0.0
 40
0.0
 40
0.073509410516673
 40
0.1357601939223012
 40
0.1892726889307675
 40
0.2363532077955592
 40
0.2789366251925777
 40
0.318494259057308
 40
0.3560910719623625
 40
0.3924422992053502
 40
0.5010871580389279
 40
0.6061316341021761
 40
0.6662341833739255
 40
0.7248664453877142
 40
0.7794065614435275
 40
0.8271176190757484
 40
0.8651950241057497
 40
0.8909721640145488
 40
0.9052852868349398
 40
0.9122682736821796
 40
0.9174215379473072
 40
0.926956625600529
 40
0.940812013198618
 40
0.9641637956146047
 40
1.0
 40
1.0
 40
1.0
 40
1.0
 10
92.32408748697426
 20
57.83630091562132
 30
0.0
 10
92.33280499015495
 20
57.88160200271844
 30
0.0
 10
92.34428486341896
 20
57.9189438997209
 30
0.0
 10
92.35791804856409
 20
57.94963494215668
 30
0.0
 10
92.37309813658628
 20
57.97498346555376
 30
0.0
 10
92.38921871848149
 20
57.99629780544012
 30
0.0
 10
92.40567338524568
 20
58.01488629734375
 30
0.0
 10
92.4218558980502
 20
58.03205695284601
 30
0.0
 10
92.43730429997976
 20
58.04884312786113
 30
0.0
 10
92.48079358564158
 20
58.10135492738575
 30
0.0
 10
92.51698810322614
 20
58.15645261828669
 30
0.0
 10
92.53446595766579
 20
58.18987731341701
 30
0.0
 10
92.54968753932926
 20
58.22337707802732
 30
0.0
 10
92.56259686199395
 20
58.25507698991562
 30
0.0
 10
92.57313793943726
 20
58.2831021268799
 30
0.0
 10
92.58125478543656
 20
58.30557756671818
 30
0.0
 10
92.58690896162528
 20
58.32073420225987
 30
0.0
 10
92.5904262804382
 20
58.32899938896416
 30
0.0
 10
92.59247619901839
 20
58.33287268846452
 30
0.0
 10
92.5941070865883
 20
58.33566538490403
 30
0.0
 10
92.59596194754668
 20
58.34135457381817
 30
0.0
 10
92.59812229789199
 20
58.34977714039803
 30
0.0
 10
92.60158121203467
 20
58.36401795419337
 30
0.0
 10
92.60681829800238
 20
58.38588938209492
 30
0.0
 10
92.60506866658528
 20
58.37860283218338
 30
0.0
 10
92.60681829800238
 20
58.38588938209492
 30
0.0
  0
SPLINE
  5
1A5
330
1F
100
AcDbEntity
  8
0
  6
Continuous
 62
     7
100
AcDbSpline
210
0.0
220
0.0
230
1.0
 70
     8
 71
     3
 72
    29
 73
    25
 74
     0
 42
0.00000001
 43
0.00000001
 40
0.0
 40
0.0
 40
0.0
 40
0.0
 40
0.0665156359221679
 40
0.1237155698314146
 40
0.1734537051798837
 40
0.2174644003675785
 40
0.2572671004348611
 40
0.3276100608138041
 40
0.3923877311832819
 40
0.5010588056914415
 40
0.6061588645534377
 40
0.6662887265115758
 40
0.7249273250365103
 40
0.779455921647946
 40
0.8271409075275232
 40
0.8651810607565626
 40
0.890915633507325
 40
0.9051963474184301
 40
0.912159387943439
 40
0.917305266903724
 40
0.9268558967962475
 40
0.9407344903707081
 40
0.9641198148655773
 40
1.0
 40
1.0
 40
1.0
 40
1.0
 10
95.35309867691186
 20
56.31987040732938
 30
0.0
 10
95.34418848310142
 20
56.27918170733464
 30
0.0
 10
95.339930237254
 20
56.2436164499301
 30
0.0
 10
95.33954772225258
 20
56.21247219364002
 30
0.0
 10
95.34226536498281
 20
56.1850464969887
 30
0.0
 10
95.34730759233034
 20
56.16063691850043
 30
0.0
 10
95.36099591037322
 20
56.11876812060765
 30
0.0
 10
95.37503753677643
 20
56.08071139261595
 30
0.0
 10
95.3948371129713
 20
56.01560432972362
 30
0.0
 10
95.40690799771518
 20
55.9509058455925
 30
0.0
 10
95.41010331821552
 20
55.91338764136168
 30
0.0
 10
95.41119427533931
 20
55.87668367117934
 30
0.0
 10
95.41085228071016
 20
55.84253893544185
 30
0.0
 10
95.4097487459517
 20
55.81269843454564
 30
0.0
 10
95.4085550826876
 20
55.78890716888706
 30
0.0
 10
95.40791769122103
 20
55.77280448678966
 30
0.0
 10
95.40796977067036
 20
55.76386188745689
 30
0.0
 10
95.40836359757566
 20
55.7595193712981
 30
0.0
 10
95.4087872471159
 20
55.75632493132612
 30
0.0
 10
95.40829910331962
 20
55.75036416892264
 30
0.0
 10
95.40703838311664
 20
55.7417651575535
 30
0.0
 10
95.40472931270301
 20
55.72730418359085
 30
0.0
 10
95.4011146485876
 20
55.70512825265177
 30
0.0
 10
95.4023143235204
 20
55.7125181366399
 30
0.0
 10
95.4011146485876
 20
55.70512825265177
 30
0.0
  0
SPLINE
  5
1A6
330
1F
100
AcDbEntity
  8
0
  6
Continuous
 62
     7
100
AcDbSpline
210
0.0
220
0.0
230
1.0
 70
     8
 71
     3
 72
    30
 73
    26
 74
     0
 42
0.00000001
 43
0.00000001
 40
0.0
 40
0.0
 40
0.0
 40
0.0
 40
0.0733710672741622
 40
0.1354857784588204
 40
0.1889060081020369
 40
0.2359655677284749
 40
0.2786055387361432
 40
0.3182808283012865
 40
0.3560247743489958
 40
0.3925182656657698
 40
0.5015113268012511
 40
0.6067352588043584
 40
0.6668500986475996
 40
0.7254329101075138
 40
0.7798846929430678
 40
0.8274888171732111
 40
0.8654592892177634
 40
0.891149206596891
 40
0.9054120107487195
 40
0.9123736179879722
 40
0.9175214967388362
 40
0.9270521001998305
 40
0.9408946115111535
 40
0.9642170833757701
 40
0.9999999999999999
 40
0.9999999999999999
 40
0.9999999999999999
 40
0.9999999999999999
 10
93.71017860006478
 20
56.50192887608875
 30
0.0
 10
93.66546828767565
 20
56.5113760656951
 30
0.0
 10
93.62696478184627
 20
56.51513683991288
 30
0.0
 10
93.59370394808522
 20
56.51429151376014
 30
0.0
 10
93.56472174581963
 20
56.50992040225492
 30
0.0
 10
93.53905413447663
 20
56.50310382041525
 30
0.0
 10
93.51573707348338
 20
56.49492208325915
 30
0.0
 10
93.49380686934988
 20
56.48645507559193
 30
0.0
 10
93.47250449790582
 20
56.4785289925232
 30
0.0
 10
93.40772451017527
 20
56.45823687850856
 30
0.0
 10
93.34339300027081
 20
56.44572818175174
 30
0.0
 10
93.30610868132774
 20
56.44230473409237
 30
0.0
 10
93.26964489098225
 20
56.44100434278919
 30
0.0
 10
93.2357311977955
 20
56.44116066464689
 30
0.0
 10
93.20609717032868
 20
56.44210735647014
 30
0.0
 10
93.1824723771429
 20
56.44317807506367
 30
0.0
 10
93.16648155627668
 20
56.44373108192799
 30
0.0
 10
93.15759887537135
 20
56.44362939737913
 30
0.0
 10
93.15328342540792
 20
56.44320899891206
 30
0.0
 10
93.1501080899589
 20
56.44276491114019
 30
0.0
 10
93.14418991547329
 20
56.4432235505838
 30
0.0
 10
93.13565544992503
 20
56.44444545100781
 30
0.0
 10
93.12130412016533
 20
56.44669050204046
 30
0.0
 10
93.09929679633838
 20
56.45020747908691
 30
0.0
 10
93.10663040917669
 20
56.44904032346747
 30
0.0
 10
93.09929679633838
 20
56.45020747908691
 30
0.0
  0
SPLINE
  5
1A7
330
1F
100
AcDbEntity
  8
0
  6
Continuous
 62
     7
100
AcDbSpline
210
0.0
220
0.0
230
1.0
 70
     8
 71
     3
 72
    30
 73
    26
 74
     0
 42
0.00000001
 43
0.00000001
 40
0.0
 40
0.0
 40
0.0
 40
0.0
 40
0.0734897024993931
 40
0.135723457356424
 40
0.189224299192619
 40
0.2362982943843121
 40
0.2788799247342282
 40
0.3184391975772435
 40
0.356037952260037
 40
0.3923902512209184
 40
0.501037389518114
 40
0.6060748133257851
 40
0.6661733631887841
 40
0.7248080795782641
 40
0.7793566464118068
 40
0.8270813152573376
 40
0.8651764411666979
 40
0.8909728765733371
 40
0.9052991103252664
 40
0.9122890332815833
 40
0.9174439021883799
 40
0.9269738747906906
 40
0.9408238135940085
 40
0.9641695620048447
 40
1.0
 40
1.0
 40
1.0
 40
1.0
 10
91.6538869006553
 20
56.14589402737587
 30
0.0
 10
91.62908949669443
 20
56.10698909050833
 30
0.0
 10
91.61177441792687
 20
56.07196613945449
 30
0.0
 10
91.60060012400068
 20
56.04029244044337
 30
0.0
 10
91.59422798196725
 20
56.01143525970402
 30
0.0
 10
91.59131935887798
 20
55.98486186346546
 30
0.0
 10
91.59053562178431
 20
55.96003951795674
 30
0.0
 10
91.5905384225498
 20
55.93643558664703
 30
0.0
 10
91.59027710807752
 20
55.91361565741273
 30
0.0
 10
91.58595213890295
 20
55.84554588161672
 30
0.0
 10
91.57455273208619
 20
55.78059776902015
 30
0.0
 10
91.56437144849195
 20
55.74426849472777
 30
0.0
 10
91.55249046754774
 20
55.70942860750752
 30
0.0
 10
91.54015565552001
 20
55.67748245668979
 30
0.0
 10
91.52861287867525
 20
55.64983439160503
 30
0.0
 10
91.5191080032799
 20
55.62788876158366
 30
0.0
 10
91.51282758101706
 20
55.61296154493058
 30
0.0
 10
91.50971874407186
 20
55.60452214587423
 30
0.0
 10
91.50855482039624
 20
55.60029115278891
 30
0.0
 10
91.50782835271919
 20
55.59713759843273
 30
0.0
 10
91.5052795324297
 20
55.59172491981803
 30
0.0
 10
91.50107796041065
 20
55.58411269012213
 30
0.0
 10
91.49383154333515
 20
55.57137334281981
 30
0.0
 10
91.48264631697838
 20
55.55185765295892
 30
0.0
 10
91.48636917329189
 20
55.55836271104661
 30
0.0
 10
91.48264631697838
 20
55.55185765295892
 30
0.0
  0
SPLINE
  5
1A8
330
1F
100
AcDbEntity
  8
0
  6
Continuous
 62
     7
100
AcDbSpline
210
0.0
220
0.0
230
1.0
 70
     8
 71
     3
 72
    30
 73
    26
 74
     0
 42
0.00000001
 43
0.00000001
 40
0.0
 40
0.0
 40
0.0
 40
0.0
 40
0.0733372527550585
 40
0.1354380983230231
 40
0.1888575155148713
 40
0.2359235845076049
 40
0.2785728821164646
 40
0.3182577534562355
 40
0.3560107890141368
 40
0.3925130060980165
 40
0.5015310315402596
 40
0.606772329374328
 40
0.6668910316710548
 40
0.7254735175976118
 40
0.7799219469101063
 40
0.8275212761105056
 40
0.8654873338831099
 40
0.8911750070462024
 40
0.9054376911708767
 40
0.9124000584362664
 40
0.9175485994609823
 40
0.9270772016662383
 40
0.9409151987124875
 40
0.9642295872018725
 40
1.0
 40
1.0
 40
1.0
 40
1.0
 10
94.71611948441651
 20
56.06503686339092
 30
0.0
 10
94.75356186305858
 20
56.03880301954949
 30
0.0
 10
94.78261854052681
 20
56.01322106963742
 30
0.0
 10
94.80473512495706
 20
55.98832444815387
 30
0.0
 10
94.82135777309131
 20
55.96414658959797
 30
0.0
 10
94.83393264167151
 20
55.94072092846887
 30
0.0
 10
94.84390588743965
 20
55.91808089926571
 30
0.0
 10
94.85272311926916
 20
55.89625989645855
 30
0.0
 10
94.86150538011887
 20
55.87526760065631
 30
0.0
 10
94.89098947903386
 20
55.81403498357611
 30
0.0
 10
94.92583989113518
 20
55.75844971872755
 30
0.0
 10
94.94882678186501
 20
55.72884932598725
 30
0.0
 10
94.9728004456428
 20
55.70129976447099
 30
0.0
 10
94.99609309984918
 20
55.67661022555794
 30
0.0
 10
95.01703696186478
 20
55.65558990062725
 30
0.0
 10
95.03396424907022
 20
55.63904798105806
 30
0.0
 10
95.04529673060014
 20
55.62773384607789
 30
0.0
 10
95.05129379126228
 20
55.62116952042452
 30
0.0
 10
95.05393692007658
 20
55.61772682514109
 30
0.0
 10
95.05578345850277
 20
55.61510162338463
 30
0.0
 10
95.06016247700413
 20
55.6110880407073
 30
0.0
 10
95.06688594139632
 20
55.60568319836906
 30
0.0
 10
95.0783307305129
 20
55.59672460111445
 30
0.0
 10
95.0959351555636
 20
55.58303757025177
 30
0.0
 10
95.09007225184504
 20
55.58760185875482
 30
0.0
 10
95.0959351555636
 20
55.58303757025177
 30
0.0
  0
SPLINE
  5
1A9
330
1F
100
AcDbEntity
  8
0
  6
Continuous
 62
     7
100
AcDbSpline
210
0.0
220
0.0
230
1.0
 70
     8
 71
     3
 72
    29
 73
    25
 74
     0
 42
0.00000001
 43
0.00000001
 40
0.0
 40
0.0
 40
0.0
 40
0.0
 40
0.0665867757392267
 40
0.1238442115841248
 40
0.1736215156882183
 40
0.2176523466927189
 40
0.2574573383159504
 40
0.3277627646103414
 40
0.3924671665561617
 40
0.5009899198638508
 40
0.6059446594669311
 40
0.6660253295584778
 40
0.7246578132026845
 40
0.7792146701304444
 40
0.8269510263733441
 40
0.8650530057963773
 40
0.8908445139474176
 40
0.9051603729647328
 40
0.9121406694432916
 40
0.917290734912987
 40
0.9268345830745573
 40
0.9407113856879106
 40
0.9641023773938965
 40
1.0
 40
1.0
 40
1.0
 40
1.0
 10
92.42056654523995
 20
56.94107835681525
 30
0.0
 10
92.45474587587994
 20
56.96475527128803
 30
0.0
 10
92.48595602707056
 20
56.98219782767653
 30
0.0
 10
92.51454953999442
 20
56.9943857247854
 30
0.0
 10
92.54088064585756
 20
57.00229866141934
 30
0.0
 10
92.56530357586603
 20
57.00691633638301
 30
0.0
 10
92.60908459509095
 20
57.01016214470981
 30
0.0
 10
92.6494627217429
 20
57.01159934985562
 30
0.0
 10
92.71692751993919
 20
57.01797523160765
 30
0.0
 10
92.78107882680204
 20
57.03138280221017
 30
0.0
 10
92.8168459516699
 20
57.04270529100811
 30
0.0
 10
92.85107920516896
 20
57.05568742904165
 30
0.0
 10
92.88242231994327
 20
57.06903599420858
 30
0.0
 10
92.90951902863696
 20
57.08145776440675
 30
0.0
 10
92.93101306389411
 20
57.09165951753394
 30
0.0
 10
92.94563481293143
 20
57.098410769026
 30
0.0
 10
92.95391351491918
 20
57.10178339539842
 30
0.0
 10
92.95807556011385
 20
57.10307800325587
 30
0.0
 10
92.96118392743608
 20
57.10390259138841
 30
0.0
 10
92.9664841827707
 20
57.10662712654673
 30
0.0
 10
92.9739191095376
 20
57.11107762028414
 30
0.0
 10
92.98635377022654
 20
57.11874045118158
 30
0.0
 10
93.00539838942638
 20
57.13056278574292
 30
0.0
 10
92.99905015379785
 20
57.1266276511322
 30
0.0
 10
93.00539838942638
 20
57.13056278574292
 30
0.0
  0
SPLINE
  5
1AA
330
1F
100
AcDbEntity
  8
0
  6
Continuous
 62
     7
100
AcDbSpline
210
0.0
220
0.0
230
1.0
 70
     8
 71
     3
 72
    29
 73
    25
 74
     0
 42
0.00000001
 43
0.00000001
 40
0.0
 40
0.0
 40
0.0
 40
0.0
 40
0.066546993057729
 40
0.1237615332847601
 40
0.1735026239279988
 40
0.217508940917223
 40
0.2573036531437394
 40
0.3276290002163994
 40
0.3923904799277528
 40
0.501035884727996
 40
0.606118316488521
 40
0.6662444245916364
 40
0.7248836907076944
 40
0.7794161441176131
 40
0.8271065258147573
 40
0.8651517333387375
 40
0.8908891414720682
 40
0.9051703350579481
 40
0.9121327739642376
 40
0.9172780148779787
 40
0.9268305981583532
 40
0.9407136933890948
 40
0.9641071527098777
 40
1.0
 40
1.0
 40
1.0
 40
1.0
 10
93.46056030820992
 20
57.14182808238194
 30
0.0
 10
93.43699643663214
 20
57.10750304908597
 30
0.0
 10
93.41398790447334
 20
57.0800810455005
 30
0.0
 10
93.39155192413826
 20
57.05851481988171
 30
0.0
 10
93.36970673488777
 20
57.04175712048583
 30
0.0
 10
93.34847057598274
 20
57.02876069556905
 30
0.0
 10
93.30859996321723
 20
57.01015346987919
 30
0.0
 10
93.27126590433407
 20
56.99440992384418
 30
0.0
 10
93.21028125469701
 20
56.96438852938527
 30
0.0
 10
93.15487666497117
 20
56.92899553678507
 30
0.0
 10
93.12534817005917
 20
56.90568978198689
 30
0.0
 10
93.09785140221763
 20
56.88140199565566
 30
0.0
 10
93.07319929384452
 20
56.85781568918302
 30
0.0
 10
93.0522047773378
 20
56.8366143739607
 30
0.0
 10
93.03568078509542
 20
56.81948156138037
 30
0.0
 10
93.02438033266618
 20
56.80801025606268
 30
0.0
 10
93.01782714805901
 20
56.80193657516674
 30
0.0
 10
93.01439306164954
 20
56.79925664890575
 30
0.0
 10
93.01177531750517
 20
56.79738314129102
 30
0.0
 10
93.00776449411572
 20
56.7929523037056
 30
0.0
 10
93.00235882562077
 20
56.78615349771781
 30
0.0
 10
92.9933972308126
 20
56.77458183754456
 30
0.0
 10
92.97970499769838
 20
56.75678281795091
 30
0.0
 10
92.98427112104186
 20
56.762710575352
 30
0.0
 10
92.97970499769838
 20
56.75678281795091
 30
0.0
  0
SPLINE
  5
1AB
330
1F
100
AcDbEntity
  8
0
  6
Continuous
 62
     7
100
AcDbSpline
210
0.0
220
0.0
230
1.0
 70
     8
 71
     3
 72
    29
 73
    25
 74
     0
 42
0.00000001
 43
0.00000001
 40
0.0
 40
0.0
 40
0.0
 40
0.0
 40
0.0665476306016795
 40
0.1237450585229071
 40
0.1734655324764356
 40
0.2174597503350551
 40
0.2572581991604574
 40
0.3276345182217745
 40
0.3924598299426599
 40
0.5011697334751851
 40
0.6062536898858487
 40
0.6663616718623326
 40
0.7249781406604059
 40
0.7794881458980876
 40
0.8271590515996857
 40
0.8651889593601872
 40
0.890915785604033
 40
0.9051910748626425
 40
0.9121514373561146
 40
0.9172957481486665
 40
0.9268448932227457
 40
0.9407248150520382
 40
0.9641137583434821
 40
1.0
 40
1.0
 40
1.0
 40
1.0
 10
93.46485929321435
 20
57.36716235995553
 30
0.0
 10
93.4426186942091
 20
57.40212002882209
 30
0.0
 10
93.42066944037715
 20
57.43016287860263
 30
0.0
 10
93.39906876972395
 20
57.45233713357014
 30
0.0
 10
93.3778749142541
 20
57.4696890179976
 30
0.0
 10
93.35714610597225
 20
57.48326475615798
 30
0.0
 10
93.31800674696366
 20
57.5029626687382
 30
0.0
 10
93.28129324856485
 20
57.51972849262207
 30
0.0
 10
93.22148661082214
 20
57.5514175390876
 30
0.0
 10
93.16746215490035
 20
57.5883213296384
 30
0.0
 10
93.13883881094893
 20
57.61242991141934
 30
0.0
 10
93.11228362932333
 20
57.63746387862052
 30
0.0
 10
93.08854485012648
 20
57.66171817767698
 30
0.0
 10
93.06837071346136
 20
57.68348775502376
 30
0.0
 10
93.05250945943092
 20
57.70106755709585
 30
0.0
 10
93.0416528934527
 20
57.71284464974315
 30
0.0
 10
93.03533504383797
 20
57.71909596049729
 30
0.0
 10
93.03200508711555
 20
57.72186924117284
 30
0.0
 10
93.02946024335294
 20
57.72381401925873
 30
0.0
 10
93.02562064552686
 20
57.72835324763149
 30
0.0
 10
93.02047731979101
 20
57.73529768950917
 30
0.0
 10
93.01196211874661
 20
57.74711061294124
 30
0.0
 10
92.99895647077038
 20
57.76527817494291
 30
0.0
 10
93.00329390054245
 20
57.75922754473063
 30
0.0
 10
92.99895647077038
 20
57.76527817494291
 30
0.0
  0
SPLINE
  5
1AC
330
1F
100
AcDbEntity
  8
0
  6
Continuous
 62
     7
100
AcDbSpline
210
0.0
220
0.0
230
1.0
 70
     8
 71
     3
 72
    30
 73
    26
 74
     0
 42
0.00000001
 43
0.00000001
 40
0.0
 40
0.0
 40
0.0
 40
0.0
 40
0.0734866690516117
 40
0.1357205678214706
 40
0.1892214372312531
 40
0.236295390539466
 40
0.2788769541338551
 40
0.318436156118316
 40
0.3560348124358954
 40
0.3923869987179127
 40
0.5010338900840399
 40
0.6060711654125662
 40
0.6661697939670318
 40
0.7248048298807137
 40
0.7793539045357253
 40
0.827079211658767
 40
0.8651750456437571
 40
0.8909721578395529
 40
0.9052988131024986
 40
0.9122889335074628
 40
0.9174438408339309
 40
0.9269737352949069
 40
0.9408236367964877
 40
0.9641694157743285
 40
1.0
 40
1.0
 40
1.0
 40
1.0
 10
90.94271110128548
 20
58.3850888245149
 30
0.0
 10
90.96750634179352
 20
58.42399290994293
 30
0.0
 10
90.98482283310074
 20
58.45901528564625
 30
0.0
 10
90.99599824040308
 20
58.49068862837892
 30
0.0
 10
91.00237120996297
 20
58.51954561489499
 30
0.0
 10
91.00528038804282
 20
58.54611892194856
 30
0.0
 10
91.00606442090502
 20
58.57094122629371
 30
0.0
 10
91.00606167131137
 20
58.59454510790552
 30
0.0
 10
91.00632293216026
 20
58.61736497866069
 30
0.0
 10
91.0106476452042
 20
58.6854346502834
 30
0.0
 10
91.02204673145947
 20
58.75038275867803
 30
0.0
 10
91.03222789680109
 20
58.78671213741535
 30
0.0
 10
91.04410886600935
 20
58.82155226042486
 30
0.0
 10
91.0564437518508
 20
58.85349874322124
 30
0.0
 10
91.0679866670919
 20
58.88114720131924
 30
0.0
 10
91.07749172449923
 20
58.90309325023357
 30
0.0
 10
91.08377233774412
 20
58.91802085645429
 30
0.0
 10
91.08688129376095
 20
58.92646049854181
 30
0.0
 10
91.08804527117577
 20
58.93069160772691
 30
0.0
 10
91.08877174294847
 20
58.93384518758571
 30
0.0
 10
91.0913205329588
 20
58.93925782961144
 30
0.0
 10
91.09552208876957
 20
58.94687004657506
 30
0.0
 10
91.10276850897151
 20
58.95960942278236
 30
0.0
 10
91.11395377163439
 20
58.97912521087891
 30
0.0
 10
91.11023090296811
 20
58.97262012018747
 30
0.0
 10
91.11395377163439
 20
58.97912521087891
 30
0.0
  0
POINT
  5
1AD
330
1F
100
AcDbEntity
  8
0
  6
Continuous
 62
     7
100
AcDbPoint
 10
92.14339556
 20
53.9805100817
 30
0.0
  0
POINT
  5
1AE
330
1F
100
AcDbEntity
  8
0
  6
Continuous
 62
     7
100
AcDbPoint
 10
92.4440591092
 20
53.9805100817
 30
0.0
  0
POINT
  5
1AF
330
1F
100
AcDbEntity
  8
0
  6
Continuous
 62
     7
100
AcDbPoint
 10
89.24339556
 20
53.9805100817
 30
0.0
  0
POINT
  5
1B0
330
1F
100
AcDbEntity
  8
0
  6
Continuous
 62
     7
100
AcDbPoint
 10
95.04339556
 20
53.9805100817
 30
0.0
  0
POINT
  5
1B1
330
1F
100
AcDbEntity
  8
0
  6
Continuous
 62
     7
100
AcDbPoint
 10
92.14339556
 20
54.9805100817
 30
0.0
  0
POINT
  5
1B2
330
1F
100
AcDbEntity
  8
0
  6
Continuous
 62
     7
100
AcDbPoint
 10
92.14339556
 20
52.9805100817
 30
0.0
  0
ENDSEC
  0
SECTION
  2
OBJECTS
  0
DICTIONARY
  5
C
330
0
100
AcDbDictionary
281
     1
  3
ACAD_GROUP
350
D
  3
ACAD_LAYOUT
350
1A
  3
ACAD_MLINESTYLE
350
17
  3
ACAD_PLOTSETTINGS
350
19
  3
ACAD_PLOTSTYLENAME
350
E
  3
ACAD_SCALELIST
350
47
  3
DWGPROPS
350
1B3
  0
DICTIONARY
  5
D
102
{ACAD_REACTORS
330
C
102
}
330
C
100
AcDbDictionary
281
     1
  0
DICTIONARY
  5
1A
102
{ACAD_REACTORS
330
C
102
}
330
C
100
AcDbDictionary
281
     1
  3
Layout1
350
1E
  3
Layout2
350
26
  3
Model
350
22
  0
DICTIONARY
  5
17
102
{ACAD_REACTORS
330
C
102
}
330
C
100
AcDbDictionary
281
     1
  3
Standard
350
18
  0
DICTIONARY
  5
19
102
{ACAD_REACTORS
330
C
102
}
330
C
100
AcDbDictionary
281
     1
  0
ACDBDICTIONARYWDFLT
  5
E
102
{ACAD_REACTORS
330
C
102
}
330
C
100
AcDbDictionary
281
     1
  3
Normal
350
F
100
AcDbDictionaryWithDefault
340
F
  0
DICTIONARY
  5
47
102
{ACAD_REACTORS
330
C
102
}
330
C
100
AcDbDictionary
281
     1
  3
A0
350
48
  3
A1
350
49
  3
A2
350
4A
  3
A3
350
4B
  3
A4
350
4C
  3
A5
350
4D
  3
A6
350
4E
  3
A7
350
4F
  3
A8
350
50
  3
A9
350
51
  3
B0
350
52
  3
B1
350
53
  3
B2
350
54
  3
B3
350
55
  3
B4
350
56
  3
B5
350
57
  3
B6
350
58
  0
XRECORD
  5
1B3
102
{ACAD_REACTORS
330
C
102
}
330
C
100
AcDbXrecord
280
     1
  1
DWGPROPS COOKIE
  2

  3

  4

  6

  7

  8
alber
  9

300
=
301
=
302
=
303
=
304
=
305
=
306
=
307
=
308
=
309
=
 40
0.0
 41
2460735.061409051
 42
2460735.061409283
  1

 90
        0
  0
LAYOUT
  5
1E
102
{ACAD_REACTORS
330
1A
102
}
330
1A
100
AcDbPlotSettings
  1

  2
none_device
  4

  6

 40
0.0
 41
0.0
 42
0.0
 43
0.0
 44
0.0
 45
0.0
 46
0.0
 47
0.0
 48
0.0
 49
0.0
140
0.0
141
0.0
142
1.0
143
1.0
 70
   688
 72
     1
 73
     0
 74
     5
  7

 75
    16
147
1.0
148
0.0
149
0.0
100
AcDbLayout
  1
Layout1
 70
     1
 71
     1
 10
0.0
 20
0.0
 11
420.0
 21
297.0
 12
0.0
 22
0.0
 32
0.0
 14
1.0000000000E+20
 24
1.0000000000E+20
 34
1.0000000000E+20
 15
-1.0000000000E+20
 25
-1.0000000000E+20
 35
-1.0000000000E+20
146
0.0
 13
0.0
 23
0.0
 33
0.0
 16
1.0
 26
0.0
 36
0.0
 17
0.0
 27
1.0
 37
0.0
 76
     0
330
1B
  0
LAYOUT
  5
26
102
{ACAD_REACTORS
330
1A
102
}
330
1A
100
AcDbPlotSettings
  1

  2
none_device
  4

  6

 40
0.0
 41
0.0
 42
0.0
 43
0.0
 44
0.0
 45
0.0
 46
0.0
 47
0.0
 48
0.0
 49
0.0
140
0.0
141
0.0
142
1.0
143
1.0
 70
   688
 72
     1
 73
     0
 74
     5
  7

 75
    16
147
1.0
148
0.0
149
0.0
100
AcDbLayout
  1
Layout2
 70
     1
 71
     2
 10
0.0
 20
0.0
 11
0.0
 21
0.0
 12
0.0
 22
0.0
 32
0.0
 14
0.0
 24
0.0
 34
0.0
 15
0.0
 25
0.0
 35
0.0
146
0.0
 13
0.0
 23
0.0
 33
0.0
 16
1.0
 26
0.0
 36
0.0
 17
0.0
 27
1.0
 37
0.0
 76
     0
330
23
  0
LAYOUT
  5
22
102
{ACAD_REACTORS
330
1A
102
}
330
1A
100
AcDbPlotSettings
  1

  2
none_device
  4
Letter_(8.50_x_11.00_Inches)
  6

 40
6.35
 41
6.35
 42
6.35000508
 43
6.35000508
 44
215.9
 45
279.4
 46
0.0
 47
0.0
 48
0.0
 49
0.0
140
0.0
141
0.0
142
1.0
143
1.0
 70
  1712
 72
     1
 73
     0
 74
     0
  7

 75
     0
147
1.0
148
0.0
149
0.0
100
AcDbLayout
  1
Model
 70
     1
 71
     0
 10
0.0
 20
0.0
 11
120.0
 21
60.0
 12
0.0
 22
0.0
 32
0.0
 14
0.0
 24
0.0
 34
0.0
 15
120.0
 25
60.0
 35
0.0
146
0.0
 13
0.0
 23
0.0
 33
0.0
 16
1.0
 26
0.0
 36
0.0
 17
0.0
 27
1.0
 37
0.0
 76
     0
330
1F
331
29
  0
MLINESTYLE
  5
18
102
{ACAD_REACTORS
330
17
102
}
330
17
100
AcDbMlineStyle
  2
Standard
 70
     0
  3

 62
   256
 51
90.0
 52
90.0
 71
     2
 49
0.5
 62
   256
  6
BYLAYER
 49
-0.5
 62
   256
  6
BYLAYER
  0
ACDBPLACEHOLDER
  5
F
102
{ACAD_REACTORS
330
E
102
}
330
E
  0
SCALE
  5
48
102
{ACAD_REACTORS
330
47
102
}
330
47
100
AcDbScale
 70
     0
300
1:1
140
1.0
141
1.0
290
     1
  0
SCALE
  5
49
102
{ACAD_REACTORS
330
47
102
}
330
47
100
AcDbScale
 70
     0
300
1:2
140
1.0
141
2.0
290
     0
  0
SCALE
  5
4A
102
{ACAD_REACTORS
330
47
102
}
330
47
100
AcDbScale
 70
     0
300
1:4
140
1.0
141
4.0
290
     0
  0
SCALE
  5
4B
102
{ACAD_REACTORS
330
47
102
}
330
47
100
AcDbScale
 70
     0
300
1:5
140
1.0
141
5.0
290
     0
  0
SCALE
  5
4C
102
{ACAD_REACTORS
330
47
102
}
330
47
100
AcDbScale
 70
     0
300
1:8
140
1.0
141
8.0
290
     0
  0
SCALE
  5
4D
102
{ACAD_REACTORS
330
47
102
}
330
47
100
AcDbScale
 70
     0
300
1:10
140
1.0
141
10.0
290
     0
  0
SCALE
  5
4E
102
{ACAD_REACTORS
330
47
102
}
330
47
100
AcDbScale
 70
     0
300
1:16
140
1.0
141
16.0
290
     0
  0
SCALE
  5
4F
102
{ACAD_REACTORS
330
47
102
}
330
47
100
AcDbScale
 70
     0
300
1:20
140
1.0
141
20.0
290
     0
  0
SCALE
  5
50
102
{ACAD_REACTORS
330
47
102
}
330
47
100
AcDbScale
 70
     0
300
1:30
140
1.0
141
30.0
290
     0
  0
SCALE
  5
51
102
{ACAD_REACTORS
330
47
102
}
330
47
100
AcDbScale
 70
     0
300
1:40
140
1.0
141
40.0
290
     0
  0
SCALE
  5
52
102
{ACAD_REACTORS
330
47
102
}
330
47
100
AcDbScale
 70
     0
300
1:50
140
1.0
141
50.0
290
     0
  0
SCALE
  5
53
102
{ACAD_REACTORS
330
47
102
}
330
47
100
AcDbScale
 70
     0
300
1:100
140
1.0
141
100.0
290
     0
  0
SCALE
  5
54
102
{ACAD_REACTORS
330
47
102
}
330
47
100
AcDbScale
 70
     0
300
2:1
140
2.0
141
1.0
290
     0
  0
SCALE
  5
55
102
{ACAD_REACTORS
330
47
102
}
330
47
100
AcDbScale
 70
     0
300
4:1
140
4.0
141
1.0
290
     0
  0
SCALE
  5
56
102
{ACAD_REACTORS
330
47
102
}
330
47
100
AcDbScale
 70
     0
300
8:1
140
8.0
141
1.0
290
     0
  0
SCALE
  5
57
102
{ACAD_REACTORS
330
47
102
}
330
47
100
AcDbScale
 70
     0
300
10:1
140
10.0
141
1.0
290
     0
  0
SCALE
  5
58
102
{ACAD_REACTORS
330
47
102
}
330
47
100
AcDbScale
 70
     0
300
100:1
140
100.0
141
1.0
290
     0
  0
ENDSEC
  0
EOF
